<svg id="Слой_2" data-name="Слой 2" viewBox="0 0 1400 400" fill="none" xmlns="http://www.w3.org/2000/svg">
<g clip-path="url(#clip0)">
<path d="M0 618.97L1439.67 618.97V233.94L0 233.94V618.97Z" fill="#003E5D"/>
<path d="M-461.95 214.82L-224.71 349.7L14.67 315.41L15.15 314.57L76.9301 349.7L256.1 324.04L402.67 427.23L657.14 364.47L683.39 317.08L966.48 397.68L1105.04 319.24L1233.54 355.82L1294.39 321.37L1342.28 407.85L1703.05 248.72L1660.61 129.97L1624.26 165.88L1550.39 167.43L1703.05 100.09L1660.61 -18.65L1624.26 17.2599L1213.04 25.85L1218.52 35.75L909.67 7.85997L895.67 32.4399L566.24 2.66997L555.52 21.54L351.14 17.2699L343.2 21.99L-4.48999 -3.74007L-47.1799 15.42L-306.18 -3.74007L-461.98 66.1899L-315.9 149.25L-461.95 214.82ZM1294.41 172.82H1294.32H1294.39H1294.41ZM1123.12 175.82L1099.67 173.64L1105.03 170.64L1123.12 175.82Z" fill="#FBBF09" stroke="#FBBF09" stroke-width="3" stroke-miterlimit="10"/>
<path d="M-461.95 141.55L-224.71 276.43L14.67 242.15L15.15 241.3L76.9301 276.43L256.12 250.77L402.67 353.97L657.14 291.2L683.39 243.81L966.48 324.41L1105.04 245.97L1233.54 282.56L1294.39 248.11L1342.28 334.59L1703.05 175.45L1660.61 56.72L1624.26 92.6299L1550.39 94.17L1703.05 26.83L1660.61 -91.91L1624.26 -56.03L1213.04 -47.4301L1218.52 -37.54L909.67 -65.41L895.67 -40.83L566.15 -70.6L555.43 -51.72L351.14 -56.03L343.2 -51.3101L-4.48999 -77.03L-47.1799 -57.8701L-306.18 -77.03L-461.95 -7.03003L-315.87 75.97L-461.95 141.55ZM1294.41 99.55H1294.32H1294.39H1294.41ZM1123.12 102.55L1099.67 100.38L1105.03 97.3799L1123.12 102.55Z" fill="#E8511E" stroke="#E8511E" stroke-width="3" stroke-miterlimit="10"/>
<path d="M0 245L1440 245V137L0 137V245Z" fill="#E8511E" stroke="#E8511E" stroke-width="3" stroke-miterlimit="10"/>
</g>
<defs>
<clipPath id="clip0">
<rect width="1439.67" height="618.97" fill="white" transform="translate(1439.67 618.97) rotate(180)"/>
</clipPath>
</defs>
</svg>
