<svg id="Слой_1" data-name="Слой 1" xmlns="http://www.w3.org/2000/svg" xmlns:xlink="http://www.w3.org/1999/xlink" viewBox="0 0 1400 400"><defs><style>.cls-1{fill:none;}.cls-2{fill:#003e5d;}.cls-3{clip-path:url(#clip-path);}.cls-4{fill:#fbbf09;stroke:#fbbf09;}.cls-4,.cls-5{stroke-miterlimit:10;stroke-width:3px;}.cls-5{fill:#e8511e;stroke:#e8511e;}</style><clipPath id="clip-path"><rect class="cls-1" x="0.17" y="-237.79" width="1439.67" height="622.82"/></clipPath></defs><rect class="cls-2" width="1439.67" height="385.03"/><g class="cls-3"><path class="cls-4" d="M1901.62,404.15,1664.38,269.27,1425,303.56l-.48.84-61.78-35.13-179.17,25.66L1037,191.74,782.53,254.5l-26.25,47.39-283.09-80.6L334.63,299.73l-128.5-36.58L145.28,297.6,97.39,211.12-263.38,370.25-220.94,489l36.35-35.91,73.87-1.55-152.66,67.34,42.44,118.74,36.35-35.91,411.22-8.59-5.48-9.9L530,611.11l14-24.58L873.43,616.3l10.72-18.87,204.38,4.27,7.94-4.72,347.69,25.73,42.69-19.16,259,19.16,155.8-69.93-146.08-83.06Zm-1756.36,42h.09l-.07,0Zm171.29-3L340,445.33l-5.36,3Z"/><path class="cls-5" d="M1901.62,477.42,1664.38,342.54,1425,376.82l-.48.85-61.78-35.13L1183.55,368.2,1037,265,782.53,327.77l-26.25,47.39-283.09-80.6L334.63,373l-128.5-36.59-60.85,34.45L97.39,284.38-263.38,443.52l42.44,118.73,36.35-35.91,73.87-1.54-152.66,67.34,42.44,118.74L-184.59,675l411.22-8.6-5.48-9.89L530,684.38l14-24.58,329.52,29.77,10.72-18.88L1088.53,675l7.94-4.72L1444.16,696l42.69-19.16,259,19.16L1901.62,626l-146.08-83Zm-1756.36,42h.09l-.07,0Zm171.29-3L340,518.59l-5.36,3Z"/></g><rect class="cls-5" x="-0.17" y="373.69" width="1439.83" height="245.27"/></svg>