<svg id="Слой_1" data-name="Слой 1" xmlns="http://www.w3.org/2000/svg" viewBox="0 0 214.94 512.34"><defs><style>.cls-1,.cls-2,.cls-3{fill:none;stroke-miterlimit:10;stroke-width:3px;}.cls-1{stroke:#e8511e;}.cls-2{stroke:#fbbf09;}.cls-3{stroke:#003e5d;}</style></defs><polygon class="cls-1" points="118.22 127.21 169.12 243.87 109.82 265.16 36.29 150.17 118.22 127.21"/><polygon class="cls-2" points="114.66 302.79 212.45 422.33 49.71 482.74 42.27 508.71 1.84 444.75 114.66 302.79"/><path class="cls-3" d="M87.08,314A43.21,43.21,0,0,0,19.6,263.63l0,0L6.13,251l7.11,19.33A43.21,43.21,0,1,0,87.08,314"/><path class="cls-3" d="M80.61,62.75a43.21,43.21,0,0,0,82.47-17.06h0L181.47,44l-19.18-7.51A43.21,43.21,0,1,0,80.61,62.75"/></svg>