<svg id="Слой_1" data-name="Слой 1" xmlns="http://www.w3.org/2000/svg" viewBox="0 0 223.73 484.95"><defs><style>.cls-1,.cls-2,.cls-3{fill:none;stroke-miterlimit:10;stroke-width:3px;}.cls-1{stroke:#e8511e;}.cls-2{stroke:#fbbf09;}.cls-3{stroke:#003e5d;}</style></defs><polygon class="cls-1" points="100.65 483.16 47.63 361.62 109.41 339.45 186 459.24 100.65 483.16"/><polygon class="cls-2" points="104.36 300.25 2.49 175.72 172.02 112.79 179.77 85.74 221.89 152.37 104.36 300.25"/><path class="cls-3" d="M133.1,288.55a45,45,0,0,0,70.29,52.5h0l14,13.15L210,334.07a45,45,0,1,0-76.92-45.52"/><path class="cls-3" d="M154.4,58.83A54.18,54.18,0,0,0,53.06,29.17h0L31.71,20.22l16.81,19.6a54.17,54.17,0,1,0,105.88,19"/></svg>