<svg id="Слой_1" data-name="Слой 1" xmlns="http://www.w3.org/2000/svg" viewBox="0 0 35.05 35.05"><defs><style>.cls-1{fill:#fbbf09;}</style></defs><title>icon</title><path class="cls-1" d="M1.87,35.05A1.87,1.87,0,0,1,0,33.18V6.34A1.87,1.87,0,0,1,1.87,4.47H4.11a.36.36,0,0,0,.36-.36V3a.75.75,0,0,1,.75-.75h4a.37.37,0,0,0,.32-.19,4.08,4.08,0,0,1,7.08,0,.37.37,0,0,0,.32.19h4a.75.75,0,0,1,.75.75V4.11a.36.36,0,0,0,.37.36h2.23A1.87,1.87,0,0,1,26.1,6.34V33.18a1.87,1.87,0,0,1-1.87,1.87ZM1.87,6a.38.38,0,0,0-.37.37V33.18a.37.37,0,0,0,.37.36H24.23a.37.37,0,0,0,.37-.36V6.34A.38.38,0,0,0,24.23,6H22a.37.37,0,0,0-.37.37V7.46a.76.76,0,0,1-.75.75H5.22a.76.76,0,0,1-.75-.75V6.34A.37.37,0,0,0,4.11,6ZM6.34,3.74A.37.37,0,0,0,6,4.11V6.34a.38.38,0,0,0,.37.37H19.76a.38.38,0,0,0,.37-.37V4.11a.37.37,0,0,0-.37-.37H16.2a.76.76,0,0,1-.71-.5,2.58,2.58,0,0,0-4.88,0,.76.76,0,0,1-.71.5Z"/><path class="cls-1" d="M15.29,14.92a.75.75,0,0,1,0-1.5h5.59a.75.75,0,0,1,0,1.5Z"/><path class="cls-1" d="M15.29,21.63a.75.75,0,0,1,0-1.5h5.59a.75.75,0,0,1,0,1.5Z"/><path class="cls-1" d="M15.29,28.34a.76.76,0,0,1,0-1.51h5.59a.76.76,0,0,1,0,1.51Z"/><path class="cls-1" d="M7.46,17.16a.65.65,0,0,1-.26-.06h0l-.06,0-.06,0H7A.17.17,0,0,0,7,17l-.07-.05L4.69,14.7a.75.75,0,1,1,1.06-1.06L7.08,15a.36.36,0,0,0,.26.11h0a.35.35,0,0,0,.26-.15l2.58-3.44a.77.77,0,0,1,.6-.3.72.72,0,0,1,.45.15.75.75,0,0,1,.16,1.05L8.09,16.82,8,16.88,8,17l0,0-.08,0-.07.05,0,0a.77.77,0,0,1-.29.07Z"/><path class="cls-1" d="M7.46,23.86a.63.63,0,0,1-.26-.05h0l-.06,0-.06,0,0,0-.06,0-.07-.05L4.69,21.41a.75.75,0,0,1,0-1.06.75.75,0,0,1,1.06,0l1.33,1.32a.36.36,0,0,0,.26.11h0a.35.35,0,0,0,.26-.15l2.58-3.44a.75.75,0,0,1,.6-.3.77.77,0,0,1,.46.15.76.76,0,0,1,.29.5.73.73,0,0,1-.14.55L8.09,23.53,8,23.59l0,.07,0,0-.08.05-.07.05,0,0a.75.75,0,0,1-.29.06Z"/><path class="cls-1" d="M7.46,30.57a.63.63,0,0,1-.26-.05h0l-.06,0-.06,0,0,0L7,30.38l-.07-.05L4.69,28.12a.77.77,0,0,1,0-1.07.75.75,0,0,1,1.06,0l1.33,1.33a.36.36,0,0,0,.26.11h0a.35.35,0,0,0,.26-.15l2.58-3.44a.77.77,0,0,1,.61-.3.71.71,0,0,1,.44.15.73.73,0,0,1,.3.49.74.74,0,0,1-.14.56L8.09,30.23,8,30.3l0,.07,0,0-.08.05a.18.18,0,0,0-.07,0l0,0a.75.75,0,0,1-.29.06Z"/><path class="cls-1" d="M32.06,35.05a.73.73,0,0,1-.67-.42l-2.24-4.47a.81.81,0,0,1-.08-.34V5.22a.76.76,0,0,1,.75-.75h4.47a.76.76,0,0,1,.76.75v24.6a.81.81,0,0,1-.08.34l-2.24,4.47A.75.75,0,0,1,32.06,35.05Zm-1.12-7.83a.37.37,0,0,0-.37.37v2a.47.47,0,0,0,0,.16L31.73,32a.37.37,0,0,0,.33.2.38.38,0,0,0,.33-.2l1.11-2.24a.32.32,0,0,0,0-.16v-2a.36.36,0,0,0-.36-.37Zm0-16.77a.37.37,0,0,0-.37.36V25.35a.38.38,0,0,0,.37.37h2.24a.37.37,0,0,0,.36-.37V10.81a.36.36,0,0,0-.36-.36Zm0-4.48a.38.38,0,0,0-.37.37V8.58a.37.37,0,0,0,.37.36h2.24a.36.36,0,0,0,.36-.36V6.34A.37.37,0,0,0,33.18,6Z"/><circle class="cls-1" cx="13.05" cy="3.74" r="0.8"/></svg>