<svg id="Слой_1" data-name="Слой 1" xmlns="http://www.w3.org/2000/svg" viewBox="0 0 35.05 35.05"><defs><style>.cls-1{fill:#fbbf09;}</style></defs><title>icon</title><path class="cls-1" d="M5.16,29.46a3.08,3.08,0,0,1-2.88-1.92.76.76,0,0,1,.44-1A.86.86,0,0,1,3,26.52a.75.75,0,0,1,.7.48,1.57,1.57,0,0,0,1.51.92,1.55,1.55,0,0,0,1.06-.38,1.33,1.33,0,0,0,.45-1c0-.82-1.1-1.37-1.76-1.63-2.36-.93-2.71-2.29-2.71-3a2.8,2.8,0,0,1,.94-2.1A3.16,3.16,0,0,1,5.29,19a3,3,0,0,1,2.87,1.92.76.76,0,0,1-.43,1,.84.84,0,0,1-.27,0,.75.75,0,0,1-.7-.48,1.58,1.58,0,0,0-1.51-.92,1.6,1.6,0,0,0-1.06.38,1.3,1.3,0,0,0-.45,1c0,.81,1.1,1.36,1.76,1.62,2.36.93,2.71,2.3,2.71,3a2.78,2.78,0,0,1-.94,2.09A3.17,3.17,0,0,1,5.16,29.46Z"/><path class="cls-1" d="M17.52,29.46a.76.76,0,0,1-.7-.49l-.57-1.51a.35.35,0,0,0-.34-.24H12.43a.38.38,0,0,0-.35.24L11.52,29a.76.76,0,0,1-.71.49.75.75,0,0,1-.26-.05.76.76,0,0,1-.44-1l3.34-8.91,0,0a.21.21,0,0,1,.06-.1l0-.05,0-.06,0-.05,0,0,.06,0,.05,0,.08-.05h.18l.11,0h.15l.1,0h0l.08.06,0,0,.07,0,0,0,0,.05,0,.06,0,.05.06.08a.14.14,0,0,0,0,.06l3.35,8.91a.77.77,0,0,1-.44,1A.86.86,0,0,1,17.52,29.46Zm-3.35-6.88a.38.38,0,0,0-.35.24l-.9,2.4a.38.38,0,0,0,.05.34.35.35,0,0,0,.3.16h1.8a.37.37,0,0,0,.3-.16.35.35,0,0,0,0-.34l-.9-2.4A.35.35,0,0,0,14.17,22.58Z"/><path class="cls-1" d="M20.88,29.46a.75.75,0,0,1-.75-.76V19.76a.75.75,0,0,1,1.5,0v7.83A.36.36,0,0,0,22,28h2.23a.76.76,0,0,1,0,1.51Z"/><path class="cls-1" d="M27.59,29.46a.76.76,0,0,1-.76-.76V19.76a.75.75,0,0,1,.76-.75h4.47a.75.75,0,0,1,0,1.5H28.7a.36.36,0,0,0-.36.37v2.23a.36.36,0,0,0,.36.37h2.24a.75.75,0,0,1,0,1.5H28.7a.37.37,0,0,0-.36.37v2.24a.36.36,0,0,0,.36.36h3.36a.76.76,0,0,1,0,1.51Z"/><path class="cls-1" d="M34.29,17.16a.76.76,0,0,1-.75-.76V15.29a.36.36,0,0,0-.36-.37H1.87a.37.37,0,0,0-.37.37V16.4a.75.75,0,0,1-.75.76A.76.76,0,0,1,0,16.4V14.17a.75.75,0,0,1,.75-.75H3.68a.39.39,0,0,0,.25-.1l9.74-8.66.12-.07.05,0a.38.38,0,0,0,.2-.4A3.78,3.78,0,0,1,14,3.55a3.55,3.55,0,1,1,7.09,0,4,4,0,0,1-.06.63.36.36,0,0,0,.19.39l.05,0,.13.07,9.74,8.66a.37.37,0,0,0,.24.1h2.93a.75.75,0,0,1,.76.75V16.4A.76.76,0,0,1,34.29,17.16ZM14.7,5.88a.36.36,0,0,0-.24.09L6.8,12.78a.37.37,0,0,0-.1.4.38.38,0,0,0,.35.24H28a.37.37,0,0,0,.34-.24.34.34,0,0,0-.1-.4L20.59,6a.38.38,0,0,0-.51,0A3.52,3.52,0,0,1,15,6,.4.4,0,0,0,14.7,5.88ZM17.52,1.5a2,2,0,1,0,2.05,2.05A2.05,2.05,0,0,0,17.52,1.5Z"/><path class="cls-1" d="M.75,35.05A.76.76,0,0,1,0,34.29V32.06a.75.75,0,0,1,.75-.75.74.74,0,0,1,.75.75v1.12a.37.37,0,0,0,.37.36H33.18a.36.36,0,0,0,.36-.36V32.06a.76.76,0,0,1,1.51,0v2.23a.76.76,0,0,1-.76.76Z"/></svg>