<svg id="Слой_1" data-name="Слой 1" xmlns="http://www.w3.org/2000/svg" viewBox="0 0 35.05 35.05"><defs><style>.cls-1{fill:#fbbf09;}</style></defs><title>icon</title><path class="cls-1" d="M6.34,35.05a1.87,1.87,0,0,1-1.87-1.87V19.76a.36.36,0,0,0-.36-.37H.75A.75.75,0,0,1,.07,19a.75.75,0,0,1,.11-.8L14.85,1.09,14.91,1a3.83,3.83,0,0,1,5.23,0l.06.06L24,5.54a.41.41,0,0,0,.29.13l.12,0a.38.38,0,0,0,.24-.35V4.1a1.85,1.85,0,0,1,1.85-1.85h2.28A1.85,1.85,0,0,1,30.58,4.1v8.55a.36.36,0,0,0,.08.23l4.23,5.29a.77.77,0,0,1-.12,1.06.81.81,0,0,1-.47.16.76.76,0,0,1-.59-.28l-4.47-5.59a.74.74,0,0,1-.16-.47v-9A.36.36,0,0,0,29,3.84a.38.38,0,0,0-.26-.11l-2.26,0a.37.37,0,0,0-.36.37V8.36a.74.74,0,0,1-.49.7.75.75,0,0,1-.26,0,.74.74,0,0,1-.57-.27L19.1,2.12l0,0a2.32,2.32,0,0,0-3.08,0l0,0-13,15.16a.39.39,0,0,0-.06.39.39.39,0,0,0,.34.22h2a.75.75,0,0,1,.76.75V33.18a.36.36,0,0,0,.36.36H17.53a.76.76,0,0,1,0,1.51Z"/><path class="cls-1" d="M25.35,29.45a.71.71,0,0,1-.53-.22L22.59,27a.75.75,0,1,1,1.06-1.06l1.44,1.44a.4.4,0,0,0,.26.11.36.36,0,0,0,.26-.11L29.3,23.7a.75.75,0,1,1,1.06,1.06l-4.48,4.47A.71.71,0,0,1,25.35,29.45Z"/><path class="cls-1" d="M26.47,35.05a8.58,8.58,0,1,1,8.58-8.58A8.59,8.59,0,0,1,26.47,35.05Zm0-15.66a7.08,7.08,0,1,0,7.08,7.08A7.09,7.09,0,0,0,26.47,19.39Z"/></svg>