<svg id="Слой_1" data-name="Слой 1" xmlns="http://www.w3.org/2000/svg" viewBox="0 0 26.1 35.05"><defs><style>.cls-1{fill:#fbbf09;}</style></defs><title>icon</title><path class="cls-1" d="M3.55,35.05A3.48,3.48,0,0,1,0,31.64V3.41A3.48,3.48,0,0,1,3.55,0h19A3.48,3.48,0,0,1,26.1,3.41V31.64a3.48,3.48,0,0,1-3.55,3.41ZM1.94,31.69a.35.35,0,0,0-.29.15.39.39,0,0,0-.06.33,2,2,0,0,0,2,1.37h19a2,2,0,0,0,2-1.37.36.36,0,0,0-.35-.48ZM1.87,4.86a.37.37,0,0,0-.37.36v24.6a.38.38,0,0,0,.37.37H24.23a.38.38,0,0,0,.37-.37V5.22a.37.37,0,0,0-.37-.36ZM3.55,1.5a2,2,0,0,0-2,1.38.37.37,0,0,0,.06.32.33.33,0,0,0,.29.15H24.16a.36.36,0,0,0,.3-.15.36.36,0,0,0,.05-.32,2,2,0,0,0-2-1.38Z"/><path class="cls-1" d="M7.46,27.22a.76.76,0,0,1-.75-.75V20.88a.37.37,0,0,0-.37-.37H4.11a.75.75,0,0,1-.68-.43.74.74,0,0,1,.09-.79L12.46,8.11A.75.75,0,0,1,13,7.83h0a.75.75,0,0,1,.55.25L15,9.66a.4.4,0,0,0,.28.12l.13,0a.36.36,0,0,0,.23-.34V8.58a.75.75,0,0,1,.75-.75h3.36a.75.75,0,0,1,.75.75v7.23a.41.41,0,0,0,0,.19l2.07,3.37a.74.74,0,0,1,0,.76.75.75,0,0,1-.65.38H19.76a.37.37,0,0,0-.37.37v5.59a.76.76,0,0,1-.75.75ZM15.29,19a.75.75,0,0,1,.75.75v5.59a.37.37,0,0,0,.36.37h1.12a.37.37,0,0,0,.37-.37V19.76a.75.75,0,0,1,.75-.75H20a.35.35,0,0,0,.32-.19.35.35,0,0,0,0-.37l-1.19-1.93a.79.79,0,0,1-.11-.39V9.7a.37.37,0,0,0-.37-.37H17.52a.36.36,0,0,0-.36.37v2.65a.76.76,0,0,1-.49.7.59.59,0,0,1-.27,0,.77.77,0,0,1-.56-.25l-2.47-2.78a.37.37,0,0,0-.27-.13h0a.42.42,0,0,0-.28.14L6.15,18.41a.37.37,0,0,0-.05.39.36.36,0,0,0,.33.21h1a.75.75,0,0,1,.75.75v5.59a.38.38,0,0,0,.37.37H9.7a.37.37,0,0,0,.36-.37V19.76a.75.75,0,0,1,.75-.75Zm-3.36,1.5a.36.36,0,0,0-.36.37v4.47a.37.37,0,0,0,.36.37h2.24a.38.38,0,0,0,.37-.37V20.88a.37.37,0,0,0-.37-.37Z"/></svg>