<svg id="Слой_1" data-name="Слой 1" xmlns="http://www.w3.org/2000/svg" viewBox="0 0 35.05 35.05"><defs><style>.cls-1{fill:#fbbf09;}</style></defs><title>icon</title><path class="cls-1" d="M1.87,35.05A1.87,1.87,0,0,1,0,33.18V1.87A1.87,1.87,0,0,1,1.87,0h19a.75.75,0,0,1,.53.22l6.71,6.71a.75.75,0,0,1,.22.53V17.52a.76.76,0,0,1-1.51,0V9.7a.36.36,0,0,0-.36-.37H20.69A1.68,1.68,0,0,1,19,7.65V1.87a.38.38,0,0,0-.37-.37H1.87a.38.38,0,0,0-.37.37V33.18a.37.37,0,0,0,.37.36H17.52a.76.76,0,1,1,0,1.51ZM20.88,2a.32.32,0,0,0-.14,0,.37.37,0,0,0-.23.34V7.46a.37.37,0,0,0,.37.37H26a.36.36,0,0,0,.34-.23.35.35,0,0,0-.08-.4L21.14,2.07A.37.37,0,0,0,20.88,2Z"/><path class="cls-1" d="M10.81,13.8a.75.75,0,1,1,0-1.5h6.71a.75.75,0,0,1,0,1.5Z"/><path class="cls-1" d="M8.58,18.27a.75.75,0,0,1,0-1.5H19.76a.75.75,0,0,1,0,1.5Z"/><path class="cls-1" d="M8.58,22.75a.76.76,0,0,1,0-1.51h5.59a.76.76,0,0,1,0,1.51Z"/><path class="cls-1" d="M8.58,27.22a.75.75,0,1,1,0-1.5h5.59a.75.75,0,1,1,0,1.5Z"/><path class="cls-1" d="M22,33.93a.71.71,0,0,1-.47-.17.74.74,0,0,1-.12-1l8.94-11.18a.77.77,0,0,1,.59-.29.71.71,0,0,1,.47.17.76.76,0,0,1,.12,1.06l-9,11.18A.76.76,0,0,1,22,33.93Z"/><path class="cls-1" d="M21.44,27.22A3.55,3.55,0,1,1,25,23.67,3.55,3.55,0,0,1,21.44,27.22Zm0-5.59a2,2,0,1,0,2,2A2.05,2.05,0,0,0,21.44,21.63Z"/><path class="cls-1" d="M31.5,35.05a3.55,3.55,0,1,1,3.55-3.55A3.56,3.56,0,0,1,31.5,35.05Zm0-5.59a2,2,0,1,0,2,2A2,2,0,0,0,31.5,29.46Z"/></svg>