<svg id="Слой_1" data-name="Слой 1" xmlns="http://www.w3.org/2000/svg" viewBox="0 0 30.57 30.56"><defs><style>.cls-1{fill:#fbbf09;}</style></defs><title>icon</title><path class="cls-1" d="M26.1,4.47A15.29,15.29,0,0,0,0,15.28a15.12,15.12,0,0,0,2.17,7.81,18.75,18.75,0,0,0,2.48,3.15c.24.23.48.45.74.67a.44.44,0,0,1,.08.11,10.86,10.86,0,0,0,1.59,1.17l.11,0A15.28,15.28,0,0,0,26.1,4.47ZM25,25A13.79,13.79,0,0,1,5.54,5.53,13.79,13.79,0,0,1,25,25Z"/><path class="cls-1" d="M14,17.16a1,1,0,0,1-.31-.73l0-7.57a1,1,0,0,1,2.06,0l0,6.05a.51.51,0,0,0,.5.5l7.14-.05a1,1,0,0,1,.73.3,1.08,1.08,0,0,1,.31.72,1,1,0,0,1-.3.73,1,1,0,0,1-.73.31l-8.66.06A1,1,0,0,1,14,17.16Z"/></svg>