<svg id="Слой_1" data-name="Слой 1" xmlns="http://www.w3.org/2000/svg" viewBox="0 0 35.05 35.05"><defs><style>.cls-1{fill:#fbbf09;}</style></defs><title>icon</title><path class="cls-1" d="M17.52,30.57a.75.75,0,0,1-.75-.75v-.16a.36.36,0,0,0-.26-.35,3,3,0,0,1-1.93-1.77.78.78,0,0,1,0-.58.73.73,0,0,1,.42-.39.65.65,0,0,1,.27-.05A.75.75,0,0,1,16,27a1.69,1.69,0,0,0,2.57.54,1.34,1.34,0,0,0,.45-1c0-.82-1.1-1.37-1.76-1.63-2.36-.93-2.71-2.29-2.71-3a2.8,2.8,0,0,1,.94-2.1,3,3,0,0,1,1.05-.61.37.37,0,0,0,.24-.35v-.21a.75.75,0,0,1,1.5,0v.16a.38.38,0,0,0,.26.35,3,3,0,0,1,1.93,1.78.71.71,0,0,1,0,.57.78.78,0,0,1-.42.4.77.77,0,0,1-1-.44,1.58,1.58,0,0,0-1.51-.92,1.6,1.6,0,0,0-1.06.38,1.35,1.35,0,0,0-.45,1c0,.81,1.1,1.36,1.76,1.62,2.36.93,2.71,2.3,2.71,3a2.78,2.78,0,0,1-.94,2.09,3.12,3.12,0,0,1-1.05.61.39.39,0,0,0-.25.35v.21A.74.74,0,0,1,17.52,30.57Z"/><path class="cls-1" d="M.75,35.05A.76.76,0,0,1,0,34.29V14.17a.75.75,0,0,1,.75-.75H34.29a.75.75,0,0,1,.76.75V34.29a.76.76,0,0,1-.76.76ZM33.18,29.6h-.1a4.84,4.84,0,0,0-3.47,3.47.37.37,0,0,0,.06.32.37.37,0,0,0,.29.14h3.22a.36.36,0,0,0,.36-.36V30a.37.37,0,0,0-.14-.29A.34.34,0,0,0,33.18,29.6ZM22.11,14.92a.36.36,0,0,0-.35.28.36.36,0,0,0,.18.41,9.68,9.68,0,0,1,0,17.24.36.36,0,0,0-.18.41.35.35,0,0,0,.35.28h5.58a.37.37,0,0,0,.36-.3,6.33,6.33,0,0,1,5.19-5.19.37.37,0,0,0,.3-.36V20.78a.38.38,0,0,0-.3-.37,6.32,6.32,0,0,1-5.19-5.18.37.37,0,0,0-.36-.31Zm-14.75,0a.37.37,0,0,0-.36.31,6.33,6.33,0,0,1-5.19,5.18.38.38,0,0,0-.31.37v6.91a.37.37,0,0,0,.31.36A6.34,6.34,0,0,1,7,33.24a.37.37,0,0,0,.36.3h5.57a.36.36,0,0,0,.36-.28.37.37,0,0,0-.19-.41,9.68,9.68,0,0,1,0-17.24.36.36,0,0,0,.19-.41.38.38,0,0,0-.36-.28ZM1.87,29.6a.39.39,0,0,0-.23.07A.37.37,0,0,0,1.5,30v3.22a.37.37,0,0,0,.37.36H5.08a.36.36,0,0,0,.29-.14.37.37,0,0,0,.07-.32A4.84,4.84,0,0,0,2,29.61ZM17.52,16a8.2,8.2,0,1,0,8.2,8.19A8.19,8.19,0,0,0,17.52,16ZM30,14.92a.37.37,0,0,0-.29.14.37.37,0,0,0-.06.32,4.84,4.84,0,0,0,3.47,3.47l.1,0a.35.35,0,0,0,.22-.08.37.37,0,0,0,.14-.29V15.29a.36.36,0,0,0-.36-.37Zm-28.09,0a.37.37,0,0,0-.37.37V18.5a.37.37,0,0,0,.14.29.4.4,0,0,0,.23.08l.09,0a4.84,4.84,0,0,0,3.48-3.47.37.37,0,0,0-.07-.32.36.36,0,0,0-.29-.14Z"/><path class="cls-1" d="M23.63,11.57a.75.75,0,0,1-.62-.32,6.72,6.72,0,0,0-5.49-3,6.75,6.75,0,0,0-5.49,3,.75.75,0,0,1-.61.32.71.71,0,0,1-.43-.14.76.76,0,0,1-.19-1,9.42,9.42,0,0,1,1.35-1.53.37.37,0,0,0-.25-.64h-10a.38.38,0,0,0-.37.37v2.23a.75.75,0,0,1-.75.76A.76.76,0,0,1,0,10.81V7.46a.76.76,0,0,1,.75-.75H34.29a.76.76,0,0,1,.76.75v3.35a.76.76,0,1,1-1.51,0V8.58a.37.37,0,0,0-.36-.37h-10a.36.36,0,0,0-.34.24.36.36,0,0,0,.1.4,9.3,9.3,0,0,1,1.34,1.53.76.76,0,0,1-.61,1.19Z"/><path class="cls-1" d="M34.29,4.86a.76.76,0,0,1-.75-.75V1.87a.37.37,0,0,0-.36-.37h-10a.38.38,0,0,0-.34.24.36.36,0,0,0,.1.4,9.3,9.3,0,0,1,1.34,1.53A.75.75,0,1,1,23,4.54a6.72,6.72,0,0,0-5.49-3,6.75,6.75,0,0,0-5.49,3,.75.75,0,0,1-.61.32A.71.71,0,0,1,11,4.72a.76.76,0,0,1-.19-1,9.86,9.86,0,0,1,1.35-1.53.37.37,0,0,0,.1-.4.39.39,0,0,0-.35-.24h-10a.38.38,0,0,0-.37.37V4.11a.75.75,0,0,1-1.5,0V.75A.76.76,0,0,1,.75,0H34.29a.76.76,0,0,1,.76.75V4.11A.76.76,0,0,1,34.29,4.86Z"/></svg>