<svg id="Слой_1" data-name="Слой 1" xmlns="http://www.w3.org/2000/svg" viewBox="0 0 35.05 35.05"><defs><style>.cls-1{fill:#fbbf09;}</style></defs><title>icon</title><path class="cls-1" d="M34.29,17.16a.76.76,0,0,1-.75-.76V15.29a.36.36,0,0,0-.36-.37H1.87a.37.37,0,0,0-.37.37V16.4a.75.75,0,0,1-.75.76A.76.76,0,0,1,0,16.4V14.17a.75.75,0,0,1,.75-.75H3.68a.39.39,0,0,0,.25-.1l9.74-8.66.12-.07.05,0a.36.36,0,0,0,.2-.39A4,4,0,0,1,14,3.55a3.55,3.55,0,1,1,7.09,0,4,4,0,0,1-.06.63.36.36,0,0,0,.19.39l.05,0,.13.07,9.74,8.66a.37.37,0,0,0,.24.1h2.93a.75.75,0,0,1,.76.75V16.4A.76.76,0,0,1,34.29,17.16ZM14.7,5.88a.36.36,0,0,0-.24.09L6.8,12.78a.37.37,0,0,0-.1.4.38.38,0,0,0,.35.24H28a.37.37,0,0,0,.34-.24.34.34,0,0,0-.1-.4L20.59,6a.38.38,0,0,0-.51,0A3.52,3.52,0,0,1,15,6,.4.4,0,0,0,14.7,5.88ZM17.52,1.5a2,2,0,1,0,2.05,2.05A2.05,2.05,0,0,0,17.52,1.5Z"/><path class="cls-1" d="M.75,35.05A.76.76,0,0,1,0,34.29V32.06a.75.75,0,0,1,.75-.75.74.74,0,0,1,.75.75v1.12a.37.37,0,0,0,.37.36H33.18a.36.36,0,0,0,.36-.36V32.06a.76.76,0,0,1,1.51,0v2.23a.76.76,0,0,1-.76.76Z"/><path class="cls-1" d="M8.58,29.46a.72.72,0,0,1-.6-.31L5.52,25.87a.37.37,0,0,0-.3-.14.22.22,0,0,0-.11,0,.36.36,0,0,0-.25.34V28.7a.76.76,0,1,1-1.51,0V19.76A.75.75,0,0,1,4.11,19H6.34a3,3,0,0,1,.88,5.82.41.41,0,0,0-.24.24A.39.39,0,0,0,7,25.4l2.14,2.85a.74.74,0,0,1,.14.56A.74.74,0,0,1,9,29.3.75.75,0,0,1,8.58,29.46ZM5.22,20.51a.36.36,0,0,0-.36.37v2.23a.36.36,0,0,0,.36.37H6.34a1.49,1.49,0,1,0,0-3Z"/><path class="cls-1" d="M11.93,29.46a.76.76,0,0,1-.75-.76V19.76a.75.75,0,0,1,.75-.75H16.4a.75.75,0,1,1,0,1.5H13.05a.37.37,0,0,0-.37.37v2.23a.37.37,0,0,0,.37.37h2.24a.75.75,0,0,1,0,1.5H13.05a.38.38,0,0,0-.37.37v2.24a.37.37,0,0,0,.37.36H16.4a.76.76,0,1,1,0,1.51Z"/><path class="cls-1" d="M19.76,29.46A.75.75,0,0,1,19,28.7V19.78h0l0-.11v-.05s0-.09,0-.11l.05-.08.05-.09.05-.08.1-.07,0,0a.27.27,0,0,0,.08-.07h0l.09,0h.06l.07,0,.08,0h0l.11,0h0l.11,0,.08.05.09.06.07,0,.08.1,0,0a.71.71,0,0,0,.07.09h0l2.35,4.69a.35.35,0,0,0,.32.2h.09a.36.36,0,0,0,.28-.35V19.76a.75.75,0,0,1,1.5,0v8.93h0a.36.36,0,0,0,0,.1v.05s0,.09,0,.12l-.05.07-.05.09,0,.08-.1.07,0,0-.08.07h0a.62.62,0,0,1-.31.08h0A.92.92,0,0,1,24,29.4l-.06,0a.71.71,0,0,1-.18-.12l-.05,0a.66.66,0,0,1-.12-.17l-2.35-4.71a.4.4,0,0,0-.33-.2h-.09a.38.38,0,0,0-.28.36v4.2A.76.76,0,0,1,19.76,29.46Z"/><path class="cls-1" d="M29.82,29.46a.76.76,0,0,1-.75-.76V20.88a.36.36,0,0,0-.37-.37H27.59a.75.75,0,1,1,0-1.5h4.47a.75.75,0,0,1,0,1.5H30.94a.37.37,0,0,0-.37.37V28.7A.75.75,0,0,1,29.82,29.46Z"/></svg>