<svg id="Слой_1" data-name="Слой 1" xmlns="http://www.w3.org/2000/svg" viewBox="0 0 35.05 35.05"><defs><style>.cls-1{fill:#fbbf09;}</style></defs><title>icon</title><path class="cls-1" d="M34.29,35.05a.82.82,0,0,1-.37-.1l-7.31-4.18a.35.35,0,0,0-.18-.05.47.47,0,0,0-.16,0L17.86,35h0l0,0-.06,0H17.3l-.06,0-.06,0-8.4-4.2a.47.47,0,0,0-.17,0,.41.41,0,0,0-.18.05L1.12,35a.79.79,0,0,1-.37.1.76.76,0,0,1-.38-.11A.74.74,0,0,1,0,34.29v-19a.75.75,0,0,1,.45-.69l5.22-2.24A.8.8,0,0,1,6,12.3a.76.76,0,0,1,.69.45.78.78,0,0,1,0,.58.75.75,0,0,1-.41.41L1.72,15.69A.36.36,0,0,0,1.5,16V32.37a.34.34,0,0,0,.19.31.29.29,0,0,0,.18,0,.39.39,0,0,0,.18,0l5.59-3.2a.35.35,0,0,0,.19-.32V19.76a.75.75,0,0,1,1.5,0v9.37a.37.37,0,0,0,.2.33l6.71,3.35a.32.32,0,0,0,.16,0,.46.46,0,0,0,.2-.05.37.37,0,0,0,.17-.31V28.7a.75.75,0,0,1,1.5,0v3.79a.38.38,0,0,0,.18.31.41.41,0,0,0,.19.05.35.35,0,0,0,.17,0l6.7-3.35a.36.36,0,0,0,.21-.33V19.76a.75.75,0,0,1,1.5,0v9.41a.36.36,0,0,0,.18.32L33,32.69a.41.41,0,0,0,.19,0,.31.31,0,0,0,.18,0,.35.35,0,0,0,.18-.31V16a.35.35,0,0,0-.22-.33l-4.91-2.11a.76.76,0,0,1-.4-.41.76.76,0,0,1,.7-1,.8.8,0,0,1,.3.06l5.58,2.4a.74.74,0,0,1,.46.69v19a.75.75,0,0,1-.38.65A.7.7,0,0,1,34.29,35.05Z"/><path class="cls-1" d="M17.52,13.8a4.7,4.7,0,1,1,4.7-4.69A4.69,4.69,0,0,1,17.52,13.8Zm0-7.88a3.19,3.19,0,1,0,3.19,3.19A3.19,3.19,0,0,0,17.52,5.92Z"/><path class="cls-1" d="M17.52,25a.74.74,0,0,1-.51-.2C16.66,24.45,8.3,16.6,8.3,8.91A9.08,9.08,0,0,1,17.52,0a9.09,9.09,0,0,1,9.23,8.91c0,7.69-8.36,15.54-8.72,15.87A.74.74,0,0,1,17.52,25Zm0-23.48A7.57,7.57,0,0,0,9.8,8.91c0,5.68,5.22,11.68,7.46,14a.36.36,0,0,0,.26.11h0a.39.39,0,0,0,.27-.11c2.24-2.32,7.46-8.33,7.46-14A7.58,7.58,0,0,0,17.52,1.5Z"/></svg>