<svg id="Слой_1" data-name="Слой 1" xmlns="http://www.w3.org/2000/svg" viewBox="0 0 585.82 309.07"><defs><style>.cls-1,.cls-4{font-size:14px;}.cls-1,.cls-4,.cls-9{fill:#003e5d;}.cls-1,.cls-5{font-family:GothamPro-Bold, Gotham Pro;font-weight:700;}.cls-2,.cls-4{font-family:GothamPro, Gotham Pro;}.cls-2{font-weight:400;}.cls-3,.cls-6,.cls-7{fill:none;stroke-miterlimit:10;}.cls-3{stroke:#e6e6e6;}.cls-5{font-size:20px;}.cls-5,.cls-8{fill:#e8511e;}.cls-6{stroke:#e8511e;}.cls-7{stroke:#003e5d;}</style></defs><text class="cls-1" transform="translate(2.37 11.9)">21 081 руб/мес<tspan class="cls-2"><tspan x="0" y="16.8">доход от номера</tspan></tspan></text><text class="cls-1" transform="translate(146.45 11.9)">29 529/мес<tspan class="cls-2"><tspan x="0" y="16.8">доход от номера</tspan></tspan></text><text class="cls-1" transform="translate(290.54 11.9)">36 098 руб/мес<tspan class="cls-2"><tspan x="0" y="16.8">доход от номера</tspan></tspan></text><text class="cls-1" transform="translate(434.62 11.9)">40 556 руб/мес<tspan class="cls-2"><tspan x="0" y="16.8">доход от номера</tspan></tspan></text><line class="cls-3" x1="2.37" y1="229.97" x2="585.82" y2="229.97"/><text class="cls-4" transform="translate(279.17 138.42)">платеж по ипотеке в месяц 27 909 рублей</text><text class="cls-5" transform="translate(0 259.01)">1 год</text><text class="cls-4" transform="translate(0 289.53)">ADR 3 008<tspan x="0" y="16.8">OCC 51%</tspan></text><text class="cls-4" transform="translate(146.45 289.53)">ADR 3 373<tspan x="0" y="16.8">OCC 58%</tspan></text><text class="cls-4" transform="translate(292.91 289.53)">ADR 3 625<tspan x="0" y="16.8">OCC 64%</tspan></text><text class="cls-4" transform="translate(439.36 289.53)">ADR 3 819<tspan x="0" y="16.8">OCC 68%</tspan></text><text class="cls-5" transform="translate(146.45 259.01)">2 год</text><text class="cls-5" transform="translate(292.91 259.01)">3 год</text><text class="cls-5" transform="translate(439.36 259.01)">4 год</text><line class="cls-6" x1="2.37" y1="157.97" x2="585.82" y2="157.97"/><path class="cls-7" d="M2.37,230S245.52,42.42,585.82,42.42"/><circle class="cls-8" cx="3.85" cy="157.97" r="3.85"/><circle class="cls-9" cx="3.85" cy="229.97" r="3.85"/><line class="cls-3" x1="3.85" y1="229.97" x2="3.85" y2="42.42"/><line class="cls-3" x1="146.45" y1="229.97" x2="146.45" y2="42.42"/><line class="cls-3" x1="294.09" y1="229.97" x2="294.09" y2="42.42"/><line class="cls-3" x1="439.36" y1="229.97" x2="439.36" y2="42.42"/></svg>