<svg id="Слой_1" data-name="Слой 1" xmlns="http://www.w3.org/2000/svg" viewBox="0 0 109.78 51.52"><defs><style>.cls-1{fill:#20405c;}.cls-2{fill:#ffca00;}.cls-3{fill:#ff4f14;}.cls-4{fill:#fff;}</style></defs><title>logo</title><path class="cls-1" d="M74.84,3.34a17,17,0,0,0-7.42,32.21h0l-2.19,5.2,5.6-4a17.13,17.13,0,0,0,4,.48,17,17,0,0,0,0-33.92Z"/><polygon class="cls-2" points="66.97 28.48 28.63 43.62 8.02 14.8 0 12.3 56.38 0 66.97 28.48 66.97 28.48"/><polygon class="cls-3" points="108.39 36.06 104 32.03 107.28 6.35 92.15 4.42 88.44 33.51 108.39 36.06 108.39 36.06"/><path d="M44.47,16.57A5.46,5.46,0,0,0,43.07,19H53.49a5.46,5.46,0,0,0-1.4-2.44,5.36,5.36,0,0,0-7.62,0Zm3.81,11.3a7.5,7.5,0,1,1,7.49-7.5c0,.24,0,.49,0,.71H43a5.25,5.25,0,0,0,1.52,3.1,5.36,5.36,0,0,0,7.62,0,6.41,6.41,0,0,0,.8-1l2.26.18a7.46,7.46,0,0,1-6.87,4.53Z"/><polygon points="98.72 25.46 100.55 25.46 100.55 27.42 94.88 27.42 94.88 25.46 96.72 25.46 96.72 15.46 94.88 15.46 94.88 13.39 100.55 13.39 100.55 15.46 98.72 15.46 98.72 25.46 98.72 25.46"/><polygon points="34.1 25.36 35.53 25.36 37.73 13.39 39.8 13.39 37.6 27.43 32.38 27.43 31.6 18.96 30.8 27.43 25.63 27.43 23.23 13.39 25.27 13.39 27.67 25.36 29.01 25.36 29.9 17.24 33.24 17.24 34.1 25.36 34.1 25.36"/><path class="cls-4" d="M76.15,25.06a2.81,2.81,0,0,1-4-4l1.24-1.26,4.26,3.75-1.54,1.49Zm6.08-.27-1.48-1.31,1.48-1.41-1.42-1.48-1.6,1.53-6.28-5.53a2,2,0,0,1,3.89,0l2.11,0A4.08,4.08,0,0,0,70.8,17v.47l1.09,1-1.16,1.19a4.85,4.85,0,0,0,6.83,6.89l1.68-1.61,1.61,1.43,1.38-1.57Z"/><path d="M68.13,48.6a1.3,1.3,0,0,0-.39-1,1.2,1.2,0,0,0-.91-.4,1.21,1.21,0,0,0-.91.4,1.3,1.3,0,0,0-.39,1,1.34,1.34,0,0,0,.39,1,1.24,1.24,0,0,0,.91.39,1.23,1.23,0,0,0,.91-.39,1.34,1.34,0,0,0,.39-1Zm-2.6-3v2a1.59,1.59,0,0,1,1.31-.71,1.54,1.54,0,0,1,1.13.48,1.61,1.61,0,0,1,.47,1.17A1.64,1.64,0,0,1,68,49.78a1.51,1.51,0,0,1-1.12.48,1.56,1.56,0,0,1-1.31-.71v.59h-.71a.21.21,0,0,1-.15,0,.14.14,0,0,1,0-.11.16.16,0,0,1,0-.11.27.27,0,0,1,.15,0h.41V46h-.41a.27.27,0,0,1-.15,0,.16.16,0,0,1,0-.11.14.14,0,0,1,0-.11.21.21,0,0,1,.15-.05Z"/><path d="M70.72,50.14l-1.39-2.79h-.09a.21.21,0,0,1-.15,0,.13.13,0,0,1,0-.11.19.19,0,0,1,0-.08.17.17,0,0,1,.06-.06h.94a.25.25,0,0,1,.16,0,.14.14,0,0,1,0,.11.15.15,0,0,1,0,.11.25.25,0,0,1-.16,0h-.4l1.22,2.46,1.21-2.46h-.4a.25.25,0,0,1-.16,0,.15.15,0,0,1,0-.11.14.14,0,0,1,0-.11.25.25,0,0,1,.16,0h.82a.25.25,0,0,1,.16,0,.14.14,0,0,1,0,.11.16.16,0,0,1,0,.09l-.06.05h-.2l-1.9,3.87H71a.28.28,0,0,1,.16,0,.15.15,0,0,1,0,.11.14.14,0,0,1,0,.11.22.22,0,0,1-.16,0H69.25a.21.21,0,0,1-.15,0,.13.13,0,0,1,0-.11.16.16,0,0,1,0-.11.27.27,0,0,1,.15,0h.94l.53-1.08Z"/><path d="M79.57,50.14h-.42l-1.51-3.88h-.23l-.12,0-.06-.05a.24.24,0,0,1,0-.08.19.19,0,0,1,0-.08.34.34,0,0,1,.06-.06h1.36s0,0,0,.06a.11.11,0,0,1,0,.08.13.13,0,0,1,0,.08.1.1,0,0,1-.06.05l-.11,0H78l1.4,3.58h0l1.37-3.58h-.57l-.12,0L80,46.19a.24.24,0,0,1,0-.08A.19.19,0,0,1,80,46l.06-.06h1.36a.34.34,0,0,1,.06.06.19.19,0,0,1,0,.08.24.24,0,0,1,0,.08l-.06.05-.12,0h-.23l-1.49,3.88Z"/><path d="M84.58,48.36a1.3,1.3,0,0,0-.47-.81,1.48,1.48,0,0,0-1.81,0,1.34,1.34,0,0,0-.47.81Zm.31.31H81.82a1.51,1.51,0,0,0,.49.94,1.54,1.54,0,0,0,1,.35,2.54,2.54,0,0,0,.7-.11,1.68,1.68,0,0,0,.6-.29.22.22,0,0,1,.12-.06.14.14,0,0,1,.1,0,.13.13,0,0,1,0,.1.21.21,0,0,1,0,.12,1.75,1.75,0,0,1-.61.34,2.83,2.83,0,0,1-.9.15,1.78,1.78,0,0,1-1.29-.5,1.65,1.65,0,0,1-.52-1.23A1.47,1.47,0,0,1,82,47.41a1.66,1.66,0,0,1,1.2-.47,1.64,1.64,0,0,1,1.21.48,1.73,1.73,0,0,1,.47,1.25Z"/><path d="M87.09,47.05v.75a5.28,5.28,0,0,1,.87-.68A1.23,1.23,0,0,1,88.5,47a.79.79,0,0,1,.5.18c.15.12.23.21.23.28a.15.15,0,0,1,0,.11.16.16,0,0,1-.12,0H89l-.09-.08a.93.93,0,0,0-.22-.17.41.41,0,0,0-.18,0,.94.94,0,0,0-.47.16,6,6,0,0,0-1,.77v1.64h1.33a.27.27,0,0,1,.15,0,.16.16,0,0,1,.05.11.14.14,0,0,1-.05.11.21.21,0,0,1-.15,0H86.06a.21.21,0,0,1-.15,0,.11.11,0,0,1,0-.1.15.15,0,0,1,0-.11.28.28,0,0,1,.16,0h.72v-2.5h-.55a.21.21,0,0,1-.15,0,.16.16,0,0,1,0-.11.14.14,0,0,1,0-.11.24.24,0,0,1,.16,0Z"/><path d="M91.17,47.05H92.8a.21.21,0,0,1,.15,0,.12.12,0,0,1,0,.11.13.13,0,0,1,0,.11.21.21,0,0,1-.15,0H91.17v2a.56.56,0,0,0,.21.44A1,1,0,0,0,92,50a2.68,2.68,0,0,0,.66-.09,2,2,0,0,0,.55-.21.24.24,0,0,1,.12,0,.13.13,0,0,1,.1,0,.15.15,0,0,1,0,.11.14.14,0,0,1,0,.1,1.56,1.56,0,0,1-.56.25,2.61,2.61,0,0,1-.85.14,1.25,1.25,0,0,1-.83-.25.78.78,0,0,1-.31-.66v-2h-.56a.21.21,0,0,1-.15,0,.16.16,0,0,1,0-.11.14.14,0,0,1,0-.11.21.21,0,0,1,.15,0h.56v-.89a.21.21,0,0,1,0-.15A.12.12,0,0,1,91,46a.13.13,0,0,1,.11,0,.21.21,0,0,1,0,.15v.89Z"/><path d="M96.14,45.5v.78H95.7V45.5Zm0,1.55v2.79h1.18a.28.28,0,0,1,.16,0,.16.16,0,0,1,.05.11.14.14,0,0,1-.05.11.22.22,0,0,1-.16,0H94.67a.21.21,0,0,1-.15,0,.14.14,0,0,1,0-.11.16.16,0,0,1,0-.11.27.27,0,0,1,.15,0h1.18V47.35H95a.22.22,0,0,1-.16,0,.16.16,0,0,1,0-.11.14.14,0,0,1,0-.11.22.22,0,0,1,.16,0Z"/><path d="M101.18,47.35v-.1a.23.23,0,0,1,0-.16.13.13,0,0,1,.1,0,.16.16,0,0,1,.12,0,.31.31,0,0,1,0,.16v.68a.23.23,0,0,1,0,.16.12.12,0,0,1-.11,0,.13.13,0,0,1-.1,0,.32.32,0,0,1,0-.14.68.68,0,0,0-.33-.48,1.42,1.42,0,0,0-.84-.23,1.24,1.24,0,0,0-1,.42,1.47,1.47,0,0,0-.34,1,1.27,1.27,0,0,0,.38,1,1.34,1.34,0,0,0,1,.38,2,2,0,0,0,.71-.13,1.78,1.78,0,0,0,.66-.41.19.19,0,0,1,.13-.07.14.14,0,0,1,.14.14q0,.15-.36.39a2.36,2.36,0,0,1-1.3.38,1.67,1.67,0,0,1-1.18-2.84,1.64,1.64,0,0,1,1.21-.48,1.69,1.69,0,0,1,1.15.41Z"/><path d="M105.13,48.65a3.26,3.26,0,0,0-.45-.09,4,4,0,0,0-.5,0,1.63,1.63,0,0,0-1,.28.61.61,0,0,0-.28.51.6.6,0,0,0,.21.46.94.94,0,0,0,.62.18,1.8,1.8,0,0,0,.73-.15,2.83,2.83,0,0,0,.69-.5v-.66Zm0,1.49v-.43a2.14,2.14,0,0,1-1.4.55,1.26,1.26,0,0,1-.85-.27.87.87,0,0,1-.3-.67.94.94,0,0,1,.4-.76,1.81,1.81,0,0,1,1.17-.33l.45,0a3.8,3.8,0,0,1,.53.08v-.49a.53.53,0,0,0-.23-.42,1.05,1.05,0,0,0-.69-.19,3.38,3.38,0,0,0-1,.21l-.15,0a.13.13,0,0,1-.1,0,.14.14,0,0,1,0-.11.1.1,0,0,1,0-.09,1,1,0,0,1,.4-.15,3.54,3.54,0,0,1,.84-.15,1.28,1.28,0,0,1,.89.28.85.85,0,0,1,.32.63v2h.4a.31.31,0,0,1,.16,0,.15.15,0,0,1,0,.11.14.14,0,0,1,0,.11.24.24,0,0,1-.16,0Z"/><path d="M108.39,45.65v4.19h1.18a.28.28,0,0,1,.16,0,.16.16,0,0,1,0,.11.14.14,0,0,1,0,.11.22.22,0,0,1-.16,0h-2.66a.21.21,0,0,1-.15,0,.14.14,0,0,1-.05-.11.16.16,0,0,1,.05-.11.27.27,0,0,1,.15,0h1.18V46h-.86a.28.28,0,0,1-.16,0,.16.16,0,0,1,0-.11.14.14,0,0,1,0-.11.22.22,0,0,1,.16-.05Z"/><path d="M74.84,3.34a17,17,0,0,0-7.42,32.21h0l-2.19,5.2,5.6-4a17.13,17.13,0,0,0,4,.48,17,17,0,0,0,0-33.92Z"/><polygon points="66.97 28.48 28.63 43.62 8.02 14.8 0 12.3 56.38 0 66.97 28.48 66.97 28.48"/><polygon points="108.39 36.06 104 32.03 107.28 6.35 92.15 4.42 88.44 33.51 108.39 36.06 108.39 36.06"/><path class="cls-4" d="M44.47,16.57A5.46,5.46,0,0,0,43.07,19H53.49a5.46,5.46,0,0,0-1.4-2.44,5.36,5.36,0,0,0-7.62,0Zm3.81,11.3a7.5,7.5,0,1,1,7.49-7.5c0,.24,0,.49,0,.71H43a5.25,5.25,0,0,0,1.52,3.1,5.36,5.36,0,0,0,7.62,0,6.41,6.41,0,0,0,.8-1l2.26.18a7.46,7.46,0,0,1-6.87,4.53Z"/><polygon class="cls-4" points="98.72 25.46 100.55 25.46 100.55 27.42 94.88 27.42 94.88 25.46 96.72 25.46 96.72 15.46 94.88 15.46 94.88 13.39 100.55 13.39 100.55 15.46 98.72 15.46 98.72 25.46 98.72 25.46"/><polygon class="cls-4" points="34.1 25.36 35.53 25.36 37.73 13.39 39.8 13.39 37.6 27.43 32.38 27.43 31.6 18.96 30.8 27.43 25.63 27.43 23.23 13.39 25.27 13.39 27.67 25.36 29.01 25.36 29.9 17.24 33.24 17.24 34.1 25.36 34.1 25.36"/><path class="cls-4" d="M76.15,25.06a2.81,2.81,0,0,1-4-4l1.24-1.26,4.26,3.75-1.54,1.49Zm6.08-.27-1.48-1.31,1.48-1.41-1.42-1.48-1.6,1.53-6.28-5.53a2,2,0,0,1,3.89,0l2.11,0A4.08,4.08,0,0,0,70.8,17v.47l1.09,1-1.16,1.19a4.85,4.85,0,0,0,6.83,6.89l1.68-1.61,1.61,1.43,1.38-1.57Z"/><path d="M68.13,48.6a1.3,1.3,0,0,0-.39-1,1.2,1.2,0,0,0-.91-.4,1.21,1.21,0,0,0-.91.4,1.3,1.3,0,0,0-.39,1,1.34,1.34,0,0,0,.39,1,1.24,1.24,0,0,0,.91.39,1.23,1.23,0,0,0,.91-.39,1.34,1.34,0,0,0,.39-1Zm-2.6-3v2a1.59,1.59,0,0,1,1.31-.71,1.54,1.54,0,0,1,1.13.48,1.61,1.61,0,0,1,.47,1.17A1.64,1.64,0,0,1,68,49.78a1.51,1.51,0,0,1-1.12.48,1.56,1.56,0,0,1-1.31-.71v.59h-.71a.21.21,0,0,1-.15,0,.14.14,0,0,1,0-.11.16.16,0,0,1,0-.11.27.27,0,0,1,.15,0h.41V46h-.41a.27.27,0,0,1-.15,0,.16.16,0,0,1,0-.11.14.14,0,0,1,0-.11.21.21,0,0,1,.15-.05Z"/><path d="M70.72,50.14l-1.39-2.79h-.09a.21.21,0,0,1-.15,0,.13.13,0,0,1,0-.11.19.19,0,0,1,0-.08.17.17,0,0,1,.06-.06h.94a.25.25,0,0,1,.16,0,.14.14,0,0,1,0,.11.15.15,0,0,1,0,.11.25.25,0,0,1-.16,0h-.4l1.22,2.46,1.21-2.46h-.4a.25.25,0,0,1-.16,0,.15.15,0,0,1,0-.11.14.14,0,0,1,0-.11.25.25,0,0,1,.16,0h.82a.25.25,0,0,1,.16,0,.14.14,0,0,1,0,.11.16.16,0,0,1,0,.09l-.06.05h-.2l-1.9,3.87H71a.28.28,0,0,1,.16,0,.15.15,0,0,1,0,.11.14.14,0,0,1,0,.11.22.22,0,0,1-.16,0H69.25a.21.21,0,0,1-.15,0,.13.13,0,0,1,0-.11.16.16,0,0,1,0-.11.27.27,0,0,1,.15,0h.94l.53-1.08Z"/><path d="M79.57,50.14h-.42l-1.51-3.88h-.23l-.12,0-.06-.05a.24.24,0,0,1,0-.08.19.19,0,0,1,0-.08.34.34,0,0,1,.06-.06h1.36s0,0,0,.06a.11.11,0,0,1,0,.08.13.13,0,0,1,0,.08.1.1,0,0,1-.06.05l-.11,0H78l1.4,3.58h0l1.37-3.58h-.57l-.12,0L80,46.19a.24.24,0,0,1,0-.08A.19.19,0,0,1,80,46l.06-.06h1.36a.34.34,0,0,1,.06.06.19.19,0,0,1,0,.08.24.24,0,0,1,0,.08l-.06.05-.12,0h-.23l-1.49,3.88Z"/><path d="M84.58,48.36a1.3,1.3,0,0,0-.47-.81,1.48,1.48,0,0,0-1.81,0,1.34,1.34,0,0,0-.47.81Zm.31.31H81.82a1.51,1.51,0,0,0,.49.94,1.54,1.54,0,0,0,1,.35,2.54,2.54,0,0,0,.7-.11,1.68,1.68,0,0,0,.6-.29.22.22,0,0,1,.12-.06.14.14,0,0,1,.1,0,.13.13,0,0,1,0,.1.21.21,0,0,1,0,.12,1.75,1.75,0,0,1-.61.34,2.83,2.83,0,0,1-.9.15,1.78,1.78,0,0,1-1.29-.5,1.65,1.65,0,0,1-.52-1.23A1.47,1.47,0,0,1,82,47.41a1.66,1.66,0,0,1,1.2-.47,1.64,1.64,0,0,1,1.21.48,1.73,1.73,0,0,1,.47,1.25Z"/><path d="M87.09,47.05v.75a5.28,5.28,0,0,1,.87-.68A1.23,1.23,0,0,1,88.5,47a.79.79,0,0,1,.5.18c.15.12.23.21.23.28a.15.15,0,0,1,0,.11.16.16,0,0,1-.12,0H89l-.09-.08a.93.93,0,0,0-.22-.17.41.41,0,0,0-.18,0,.94.94,0,0,0-.47.16,6,6,0,0,0-1,.77v1.64h1.33a.27.27,0,0,1,.15,0,.16.16,0,0,1,.05.11.14.14,0,0,1-.05.11.21.21,0,0,1-.15,0H86.06a.21.21,0,0,1-.15,0,.11.11,0,0,1,0-.1.15.15,0,0,1,0-.11.28.28,0,0,1,.16,0h.72v-2.5h-.55a.21.21,0,0,1-.15,0,.16.16,0,0,1,0-.11.14.14,0,0,1,0-.11.24.24,0,0,1,.16,0Z"/><path d="M91.17,47.05H92.8a.21.21,0,0,1,.15,0,.12.12,0,0,1,0,.11.13.13,0,0,1,0,.11.21.21,0,0,1-.15,0H91.17v2a.56.56,0,0,0,.21.44A1,1,0,0,0,92,50a2.68,2.68,0,0,0,.66-.09,2,2,0,0,0,.55-.21.24.24,0,0,1,.12,0,.13.13,0,0,1,.1,0,.15.15,0,0,1,0,.11.14.14,0,0,1,0,.1,1.56,1.56,0,0,1-.56.25,2.61,2.61,0,0,1-.85.14,1.25,1.25,0,0,1-.83-.25.78.78,0,0,1-.31-.66v-2h-.56a.21.21,0,0,1-.15,0,.16.16,0,0,1,0-.11.14.14,0,0,1,0-.11.21.21,0,0,1,.15,0h.56v-.89a.21.21,0,0,1,0-.15A.12.12,0,0,1,91,46a.13.13,0,0,1,.11,0,.21.21,0,0,1,0,.15v.89Z"/><path d="M96.14,45.5v.78H95.7V45.5Zm0,1.55v2.79h1.18a.28.28,0,0,1,.16,0,.16.16,0,0,1,.05.11.14.14,0,0,1-.05.11.22.22,0,0,1-.16,0H94.67a.21.21,0,0,1-.15,0,.14.14,0,0,1,0-.11.16.16,0,0,1,0-.11.27.27,0,0,1,.15,0h1.18V47.35H95a.22.22,0,0,1-.16,0,.16.16,0,0,1,0-.11.14.14,0,0,1,0-.11.22.22,0,0,1,.16,0Z"/><path d="M101.18,47.35v-.1a.23.23,0,0,1,0-.16.13.13,0,0,1,.1,0,.16.16,0,0,1,.12,0,.31.31,0,0,1,0,.16v.68a.23.23,0,0,1,0,.16.12.12,0,0,1-.11,0,.13.13,0,0,1-.1,0,.32.32,0,0,1,0-.14.68.68,0,0,0-.33-.48,1.42,1.42,0,0,0-.84-.23,1.24,1.24,0,0,0-1,.42,1.47,1.47,0,0,0-.34,1,1.27,1.27,0,0,0,.38,1,1.34,1.34,0,0,0,1,.38,2,2,0,0,0,.71-.13,1.78,1.78,0,0,0,.66-.41.19.19,0,0,1,.13-.07.14.14,0,0,1,.14.14q0,.15-.36.39a2.36,2.36,0,0,1-1.3.38,1.67,1.67,0,0,1-1.18-2.84,1.64,1.64,0,0,1,1.21-.48,1.69,1.69,0,0,1,1.15.41Z"/><path d="M105.13,48.65a3.26,3.26,0,0,0-.45-.09,4,4,0,0,0-.5,0,1.63,1.63,0,0,0-1,.28.61.61,0,0,0-.28.51.6.6,0,0,0,.21.46.94.94,0,0,0,.62.18,1.8,1.8,0,0,0,.73-.15,2.83,2.83,0,0,0,.69-.5v-.66Zm0,1.49v-.43a2.14,2.14,0,0,1-1.4.55,1.26,1.26,0,0,1-.85-.27.87.87,0,0,1-.3-.67.94.94,0,0,1,.4-.76,1.81,1.81,0,0,1,1.17-.33l.45,0a3.8,3.8,0,0,1,.53.08v-.49a.53.53,0,0,0-.23-.42,1.05,1.05,0,0,0-.69-.19,3.38,3.38,0,0,0-1,.21l-.15,0a.13.13,0,0,1-.1,0,.14.14,0,0,1,0-.11.1.1,0,0,1,0-.09,1,1,0,0,1,.4-.15,3.54,3.54,0,0,1,.84-.15,1.28,1.28,0,0,1,.89.28.85.85,0,0,1,.32.63v2h.4a.31.31,0,0,1,.16,0,.15.15,0,0,1,0,.11.14.14,0,0,1,0,.11.24.24,0,0,1-.16,0Z"/><path d="M108.39,45.65v4.19h1.18a.28.28,0,0,1,.16,0,.16.16,0,0,1,0,.11.14.14,0,0,1,0,.11.22.22,0,0,1-.16,0h-2.66a.21.21,0,0,1-.15,0,.14.14,0,0,1-.05-.11.16.16,0,0,1,.05-.11.27.27,0,0,1,.15,0h1.18V46h-.86a.28.28,0,0,1-.16,0,.16.16,0,0,1,0-.11.14.14,0,0,1,0-.11.22.22,0,0,1,.16-.05Z"/></svg>