<svg id="Слой_1" data-name="Слой 1" xmlns="http://www.w3.org/2000/svg" xmlns:xlink="http://www.w3.org/1999/xlink" viewBox="0 0 1003.86 406.72"><defs><style>.cls-1{fill:none;}.cls-2{fill:#fa583f;}.cls-3{clip-path:url(#clip-path);}.cls-4{fill:#003e5d;}.cls-5{fill:#fbbf09;}.cls-6{font-size:75.23px;fill:#fff;font-family:GothamPro-Light, Gotham Pro;font-weight:300;}.cls-7{letter-spacing:7.26em;}.cls-8{letter-spacing:0em;}.cls-9{font-size:115px;font-family:GothamPro-Bold, Gotham Pro;font-weight:700;}</style><clipPath id="clip-path"><polygon class="cls-1" points="1003.86 383.3 3.53 406.72 3.53 0 1003.86 31.3 1003.86 383.3"/></clipPath></defs><title>main_slider</title><polygon class="cls-2" points="1000.33 383.3 0 406.72 0 0 1000.33 31.3 1000.33 383.3"/><g class="cls-3"><polygon class="cls-4" points="85.05 2.55 -4.49 203.36 -32.39 163.3 -3.16 -31.96 85.05 2.55"/><polygon class="cls-5" points="853.09 -148.92 1070.43 -3.51 991.45 99.03 736.81 -18.39 853.09 -148.92"/><polygon class="cls-5" points="1083.28 358.74 906.34 434.65 874.68 344.76 1049.3 234.59 1083.28 358.74"/><polygon class="cls-5" points="126.46 453.71 -62.95 488.32 -73.8 393.64 120.97 325.11 126.46 453.71"/><polygon class="cls-4" points="534.98 499.3 201.9 404.35 408.57 332.76 606.32 392.16 534.98 499.3"/></g><text class="cls-6" transform="translate(44.51 149.25)"><tspan class="cls-7">	<tspan class="cls-8" x="568.93" y="0">Акция </tspan></tspan><tspan class="cls-9"><tspan x="0" y="114.57">Рекомендация</tspan></tspan></text></svg>