<svg id="Слой_1" data-name="Слой 1" xmlns="http://www.w3.org/2000/svg" viewBox="0 0 1445.99 206.23"><defs><style>.cls-1{opacity:0.38;}.cls-2{fill:none;stroke:#ccc;stroke-miterlimit:10;stroke-width:4px;}</style></defs><title>pattern</title><g class="cls-1"><polygon class="cls-2" points="1115.36 76.16 1205.54 36.82 1221.99 82.65 1133.11 139.48 1115.36 76.16"/><polygon class="cls-2" points="1281.99 78.91 1374.39 3.32 1421.08 129.11 1441.15 134.86 1391.71 166.11 1281.99 78.91"/><path class="cls-2" d="M1267.48,138.87a33.4,33.4,0,0,0-39,52.16v0l-9.76,10.39,15-5.49a33.4,33.4,0,1,0,33.77-57.08"/><path class="cls-2" d="M1034.62,128.41a33.4,33.4,0,0,0-13.18-63.74v0l-1.3-14.19-5.81,14.83a33.4,33.4,0,1,0,20.3,63.13"/></g><g class="cls-1"><polygon class="cls-2" points="622.72 76.16 712.89 36.82 729.35 82.65 640.47 139.48 622.72 76.16"/><polygon class="cls-2" points="789.35 78.91 881.75 3.32 928.44 129.11 948.51 134.86 899.08 166.11 789.35 78.91"/><path class="cls-2" d="M774.84,138.87a33.4,33.4,0,0,0-39,52.16v0l-9.76,10.39,15-5.49a33.4,33.4,0,1,0,33.77-57.08"/><path class="cls-2" d="M542,128.41A33.4,33.4,0,0,0,528.8,64.67v0l-1.3-14.19-5.81,14.83A33.4,33.4,0,1,0,542,128.41"/></g><g class="cls-1"><polygon class="cls-2" points="130.08 76.16 220.26 36.82 236.71 82.65 147.83 139.48 130.08 76.16"/><polygon class="cls-2" points="296.71 78.91 389.11 3.32 435.8 129.11 455.88 134.86 406.44 166.11 296.71 78.91"/><path class="cls-2" d="M282.2,138.87A33.41,33.41,0,0,0,243.25,191v0l-9.75,10.39L248.43,196a33.4,33.4,0,1,0,33.77-57.08"/><path class="cls-2" d="M49.34,128.41A33.4,33.4,0,0,0,36.16,64.67v0l-1.3-14.19L29,65.28a33.86,33.86,0,0,0-7.57,2.43,33.4,33.4,0,1,0,27.87,60.7"/></g></svg>