<svg id="Слой_1" data-name="Слой 1" xmlns="http://www.w3.org/2000/svg" xmlns:xlink="http://www.w3.org/1999/xlink" viewBox="0 0 454.67 504"><defs><style>.cls-1{fill:none;}.cls-2{fill:#e8511e;}.cls-3{clip-path:url(#clip-path);}.cls-4{fill:#003e5d;}.cls-5{fill:#ffca00;}.cls-6{fill:#ff4e02;}.cls-7{fill:#000001;}</style><clipPath id="clip-path"><rect id="SVGID" class="cls-1" y="189.37" width="454.67" height="314.63"/></clipPath></defs><title>pattern_load</title><rect class="cls-2" width="454.67" height="504"/><g class="cls-3"><polygon class="cls-4" points="114.75 462.83 140.94 438.97 156.77 475.52 162.81 476.91 148.65 486.95 114.75 462.83"/><polygon class="cls-4" points="11.42 459.62 40.21 438.95 51.69 477.09 57.52 479.17 42.3 487.5 11.42 459.62"/><polygon class="cls-5" points="118.05 461.55 155.24 473.55 117.69 524.49 119.84 535.58 98.25 508.4 118.05 461.55"/><path class="cls-6" d="M84.91,415.11A17.69,17.69,0,0,0,56,433.94h0l-6.74,3.39h8.43a17.7,17.7,0,1,0,27.22-22.23Z"/><path class="cls-7" d="M81.77,462.18a11.69,11.69,0,1,1,9.88-13.25,10.51,10.51,0,0,1,.1,1.09L72,452.89a8.16,8.16,0,0,0,3,4.45,8.37,8.37,0,0,0,11.75-1.71,10,10,0,0,0,1-1.76l3.53-.23A11.65,11.65,0,0,1,81.77,462.18Zm-8.41-16.59a8.59,8.59,0,0,0-1.62,4.09l16.08-2.34a8.53,8.53,0,0,0-2.71-3.46,8.39,8.39,0,0,0-11.75,1.71Z"/><path class="cls-7" d="M124.42,452.14l2.82-.41.44,3L118.93,456l-.44-3,2.84-.41-2.25-15.43-2.84.42-.46-3.19,8.75-1.27.46,3.18-2.81.41Z"/><polygon class="cls-7" points="60.96 461.26 62.36 461.05 62.46 442.19 65.64 441.72 66.01 463.77 58.77 464.83 55.68 451.95 56.35 465.18 49.18 466.23 42.93 445.03 46.09 444.57 51.87 462.58 53.12 462.4 52.66 449.67 57.82 448.91 60.96 461.26"/><path class="cls-7" d="M115.86,452.41l-2.57-1.68,2-2.52-2.52-2L110.6,449l-10.92-7.12a3.1,3.1,0,0,1,6-.83l3.25-.5A6.35,6.35,0,0,0,96.48,443l.11.73,1.9,1.25L97,447.07A7.55,7.55,0,0,0,104.18,459a7.51,7.51,0,0,0,4.88-2.83l2.22-2.85,2.81,1.83Zm-9.33,1.78a4.36,4.36,0,0,1-7-5.24l1.63-2.24,7.41,4.84Z"/><path class="cls-7" d="M68.48,491.63a11.69,11.69,0,1,1,12.37-11c0,.37-.08.74-.13,1.09l-19.9-1.21a8.38,8.38,0,0,0,13.93,5.7,10.14,10.14,0,0,0,1.35-1.52l3.5.49A11.64,11.64,0,0,1,68.48,491.63Zm-4.86-17.95a8.53,8.53,0,0,0-2.42,3.67l16.22,1a8.58,8.58,0,0,0-2-3.93,8.36,8.36,0,0,0-11.85-.72Z"/><path class="cls-7" d="M112.28,490.48l2.84.17-.19,3.06-8.82-.53.18-3.06,2.87.17.94-15.56-2.87-.17.2-3.21,8.82.53-.19,3.21-2.84-.17Z"/><polygon class="cls-7" points="48.29 486.49 49.71 486.58 53.64 468.13 56.85 468.32 52.72 489.98 45.42 489.54 45.01 476.3 42.98 489.39 35.74 488.96 33.94 466.94 37.12 467.13 39.12 485.94 40.38 486.01 42.52 473.45 47.73 473.77 48.29 486.49"/><path class="cls-7" d="M103.84,489l-2.18-2.17,2.44-2.06L102,482.33l-2.64,2.24-9.24-9.2a3.1,3.1,0,0,1,6,.41l3.28.18a6.35,6.35,0,0,0-12.69-.12l0,.74,1.61,1.6-1.93,1.75a7.56,7.56,0,0,0,10,11.35L99.17,489l2.38,2.36Zm-9.49-.15a4.37,4.37,0,0,1-5.78-6.56l2.05-1.85,6.28,6.24Z"/><polygon class="cls-5" points="192.62 485.69 222.49 460.48 245.82 519.31 256.37 523.35 221.89 527.28 192.62 485.69"/><path class="cls-6" d="M180.71,449.1a17.7,17.7,0,0,0-3.44-34.32v0l.1-7.55-3.88,7.5a17.7,17.7,0,1,0,7.22,34.39Z"/><path class="cls-7" d="M185.17,462.19A11.68,11.68,0,1,1,195.05,449a10.51,10.51,0,0,1,.1,1.09l-19.73,2.87a8.2,8.2,0,0,0,3.05,4.45,8.37,8.37,0,0,0,11.75-1.71,10,10,0,0,0,1-1.76l3.53-.23A11.63,11.63,0,0,1,185.17,462.19Zm-8.41-16.58a8.55,8.55,0,0,0-1.62,4.09l16.08-2.34a8.53,8.53,0,0,0-2.71-3.46,8.37,8.37,0,0,0-11.75,1.71Z"/><path class="cls-7" d="M227.82,452.16l2.82-.41.44,3-8.75,1.27-.44-3,2.84-.41-2.25-15.43-2.84.41-.46-3.18,8.75-1.28.46,3.19-2.81.41Z"/><polygon class="cls-7" points="164.36 461.27 165.76 461.07 165.86 442.21 169.04 441.74 169.41 463.79 162.17 464.85 159.08 451.97 159.75 465.2 152.58 466.24 146.33 445.05 149.49 444.59 155.27 462.6 156.52 462.42 156.06 449.69 161.22 448.93 164.36 461.27"/><path class="cls-7" d="M219.26,452.42l-2.57-1.68,2-2.51-2.52-2L214,449l-10.92-7.12a3.1,3.1,0,0,1,6-.83l3.25-.5A6.35,6.35,0,0,0,199.88,443l.11.73,1.9,1.24-1.53,2.1A7.56,7.56,0,0,0,207.58,459a7.51,7.51,0,0,0,4.88-2.83l2.22-2.85,2.81,1.83Zm-9.33,1.79a4.36,4.36,0,0,1-7-5.24l1.63-2.24,7.41,4.84Z"/><path class="cls-7" d="M171.88,491.65a11.69,11.69,0,1,1,12.37-11c0,.37-.08.74-.13,1.08l-19.9-1.2a8.38,8.38,0,0,0,13.93,5.7,10.66,10.66,0,0,0,1.35-1.52l3.5.49A11.66,11.66,0,0,1,171.88,491.65ZM167,473.7a8.53,8.53,0,0,0-2.42,3.67l16.22,1a8.61,8.61,0,0,0-1.95-3.94A8.37,8.37,0,0,0,167,473.7Z"/><path class="cls-7" d="M215.68,490.5l2.84.17-.19,3.06-8.82-.53.18-3.06,2.87.17.94-15.56-2.87-.17.2-3.21,8.82.53-.19,3.21-2.84-.17Z"/><polygon class="cls-7" points="151.69 486.51 153.1 486.6 157.04 468.15 160.25 468.34 156.12 490 148.82 489.56 148.41 476.32 146.38 489.41 139.14 488.98 137.34 466.96 140.52 467.15 142.52 485.96 143.78 486.03 145.92 473.47 151.13 473.79 151.69 486.51"/><path class="cls-7" d="M207.24,489l-2.18-2.17,2.44-2.06-2.07-2.44-2.64,2.24-9.24-9.2a3.1,3.1,0,0,1,6,.41l3.28.18a6.35,6.35,0,0,0-12.69-.12l0,.73,1.61,1.61-1.93,1.74a7.57,7.57,0,0,0,10,11.36l2.75-2.34,2.38,2.37Zm-9.49-.15a4.37,4.37,0,0,1-5.78-6.56l2.05-1.85,6.28,6.24Z"/><polygon class="cls-5" points="-9.99 520.99 -13.67 482.09 47.96 496.45 57.3 490.09 40.87 520.66 -9.99 520.99"/><path class="cls-7" d="M21.11,451.78l2.81-.41.45,3-8.75,1.27-.45-3,2.85-.41L15.77,436.8l-2.84.42L12.46,434l8.75-1.27.47,3.18-2.82.41Z"/><path class="cls-7" d="M12.55,452,10,450.36l2-2.51-2.52-2-2.12,2.73-10.93-7.12A3.1,3.1,0,0,1-1,438.65a3.1,3.1,0,0,1,3.36,2l3.24-.5a6.35,6.35,0,0,0-7.07-4.73,6.35,6.35,0,0,0-5.37,7.2l.1.73,1.91,1.25-1.53,2.1A7.6,7.6,0,0,0-4.8,457.17a7.56,7.56,0,0,0,5.67,1.45,7.51,7.51,0,0,0,4.87-2.83L8,452.94l2.81,1.83Zm-9.33,1.79a4.38,4.38,0,0,1-6.09.79,4.39,4.39,0,0,1-.9-6l1.63-2.24,7.42,4.84Z"/><path class="cls-7" d="M9,490.12l2.83.17-.18,3.06-8.83-.53L3,489.76l2.87.17.94-15.56-2.87-.17L4.11,471l8.83.53-.2,3.21-2.83-.17Z"/><path class="cls-7" d="M.53,488.64l-2.18-2.17,2.43-2.06L-1.29,482l-2.63,2.24-9.25-9.2A3.1,3.1,0,0,1-10,472.77a3.11,3.11,0,0,1,2.88,2.65l3.28.18a6.36,6.36,0,0,0-6-6.08,6.36,6.36,0,0,0-6.72,6l0,.73,1.61,1.61-1.93,1.75a7.6,7.6,0,0,0-.61,10.55,7.54,7.54,0,0,0,5.25,2.58,7.54,7.54,0,0,0,5.35-1.78l2.76-2.33L-1.76,491Zm-9.5-.15a4.39,4.39,0,0,1-6.12-.46,4.39,4.39,0,0,1,.35-6.1l2.05-1.85,6.28,6.24Z"/><polygon class="cls-4" points="431.74 483.14 431.21 447.72 469.07 460.07 474.11 456.46 472.26 473.72 431.74 483.14"/><polygon class="cls-4" points="321.87 475.43 334.09 442.17 365 467.28 371 465.72 363.07 481.17 321.87 475.43"/><polygon class="cls-5" points="403.24 474.02 439.98 460.71 441.51 523.98 450.01 531.42 416.3 523.17 403.24 474.02"/><path class="cls-6" d="M372.69,449.52a17.7,17.7,0,0,0,15.83-30.65h0l4.2-6.28-7.33,4.17a17.41,17.41,0,0,0-3.93-1.52,17.7,17.7,0,1,0-8.77,34.29Z"/><path class="cls-7" d="M388.73,462.18a11.69,11.69,0,1,1,9.88-13.25,10.51,10.51,0,0,1,.1,1.09L379,452.89a8.16,8.16,0,0,0,3,4.45,8.37,8.37,0,0,0,11.75-1.71,10,10,0,0,0,1-1.76l3.53-.23A11.65,11.65,0,0,1,388.73,462.18Zm-8.41-16.59a8.59,8.59,0,0,0-1.62,4.09l16.08-2.34a8.53,8.53,0,0,0-2.71-3.46,8.39,8.39,0,0,0-11.75,1.71Z"/><path class="cls-7" d="M431.38,452.14l2.82-.41.44,3L425.89,456l-.44-3,2.84-.41L426,437.16l-2.84.42-.46-3.19,8.75-1.27.46,3.18-2.81.41Z"/><polygon class="cls-7" points="367.92 461.26 369.32 461.05 369.42 442.19 372.6 441.72 372.97 463.77 365.73 464.83 362.64 451.95 363.31 465.18 356.14 466.23 349.89 445.03 353.05 444.57 358.83 462.58 360.08 462.4 359.62 449.67 364.78 448.91 367.92 461.26"/><path class="cls-7" d="M422.82,452.41l-2.57-1.68,2-2.52-2.52-2L417.56,449l-10.92-7.12a3.1,3.1,0,0,1,6-.83l3.25-.5A6.35,6.35,0,0,0,403.44,443l.11.73,1.9,1.25-1.53,2.1A7.55,7.55,0,0,0,411.14,459a7.51,7.51,0,0,0,4.88-2.83l2.22-2.85,2.81,1.83Zm-9.33,1.78a4.36,4.36,0,0,1-7-5.24l1.63-2.24,7.41,4.84Z"/><path class="cls-7" d="M375.44,491.63a11.69,11.69,0,1,1,12.37-11c0,.37-.08.74-.13,1.09l-19.9-1.21a8.38,8.38,0,0,0,13.93,5.7,10.14,10.14,0,0,0,1.35-1.52l3.5.49A11.64,11.64,0,0,1,375.44,491.63Zm-4.86-17.95a8.53,8.53,0,0,0-2.42,3.67l16.22,1a8.58,8.58,0,0,0-1.95-3.93,8.36,8.36,0,0,0-11.85-.72Z"/><path class="cls-7" d="M419.24,490.48l2.84.17-.19,3.06-8.82-.53.18-3.06,2.87.17.94-15.56-2.87-.17.2-3.21,8.82.53-.19,3.21-2.84-.17Z"/><polygon class="cls-7" points="355.25 486.49 356.67 486.58 360.6 468.13 363.81 468.32 359.68 489.98 352.38 489.54 351.97 476.3 349.94 489.39 342.7 488.96 340.9 466.94 344.08 467.13 346.08 485.94 347.34 486.01 349.48 473.45 354.69 473.77 355.25 486.49"/><path class="cls-7" d="M410.8,489l-2.18-2.17,2.44-2.06L409,482.33l-2.64,2.24-9.24-9.2a3.1,3.1,0,0,1,6,.41l3.28.18a6.35,6.35,0,0,0-12.69-.12l0,.74,1.61,1.6-1.92,1.75a7.56,7.56,0,0,0,10,11.35l2.75-2.33,2.38,2.36Zm-9.49-.15a4.37,4.37,0,0,1-5.78-6.56l2.05-1.85,6.28,6.24Z"/><polygon class="cls-7" points="471.32 461.27 472.72 461.07 472.82 442.21 476 441.74 476.37 463.79 469.13 464.85 466.04 451.97 466.71 465.2 459.54 466.24 453.29 445.05 456.45 444.59 462.23 462.6 463.48 462.42 463.02 449.69 468.18 448.93 471.32 461.27"/><polygon class="cls-7" points="458.65 486.51 460.06 486.6 464 468.15 467.21 468.34 463.08 490 455.78 489.56 455.37 476.32 453.33 489.41 446.1 488.98 444.3 466.96 447.48 467.15 449.48 485.96 450.74 486.03 452.88 473.47 458.09 473.79 458.65 486.51"/><polygon class="cls-4" points="251.19 487.66 220.94 469.19 251.6 443.77 251.24 437.58 264.85 448.36 251.19 487.66"/><polygon class="cls-5" points="317.59 462.22 355.87 470.09 324.09 524.82 327.44 535.6 303.02 510.94 317.59 462.22"/><path class="cls-6" d="M254.36,432.94a17.7,17.7,0,0,0,34.44,1.82h0l7.45,1.24-6.81-5a17.7,17.7,0,1,0-35.09,1.91Z"/><path class="cls-7" d="M285.42,461.81a11.68,11.68,0,1,1,9.88-13.24,10.44,10.44,0,0,1,.09,1.09l-19.72,2.87a8.2,8.2,0,0,0,3.05,4.45,8.37,8.37,0,0,0,11.75-1.71,9.94,9.94,0,0,0,1-1.76l3.54-.23A11.65,11.65,0,0,1,285.42,461.81ZM277,445.23a8.68,8.68,0,0,0-1.61,4.09L291.47,447a8.56,8.56,0,0,0-2.72-3.46A8.37,8.37,0,0,0,277,445.23Z"/><path class="cls-7" d="M328.07,451.78l2.81-.41.45,3-8.75,1.27-.45-3,2.85-.41-2.25-15.43-2.84.42-.47-3.19,8.75-1.27.47,3.18-2.82.41Z"/><polygon class="cls-7" points="264.61 460.89 266.01 460.69 266.1 441.83 269.29 441.36 269.66 463.41 262.42 464.47 259.32 451.59 259.99 464.82 252.82 465.86 246.58 444.67 249.73 444.21 255.51 462.22 256.77 462.04 256.31 449.31 261.47 448.55 264.61 460.89"/><path class="cls-7" d="M319.51,452l-2.58-1.68,2-2.51-2.52-2-2.12,2.73-10.93-7.12a3.1,3.1,0,0,1,6-.83l3.24-.5a6.35,6.35,0,0,0-12.44,2.47l.1.73,1.91,1.25-1.53,2.1a7.55,7.55,0,0,0,7.22,11.91,7.51,7.51,0,0,0,4.87-2.83l2.23-2.85,2.81,1.83Zm-9.33,1.79a4.37,4.37,0,0,1-7-5.24l1.63-2.24,7.42,4.84Z"/><path class="cls-7" d="M272.13,491.27a11.69,11.69,0,1,1,12.36-11c0,.37-.07.74-.12,1.08l-19.9-1.2a8.39,8.39,0,0,0,7.85,7.8,8.33,8.33,0,0,0,6.08-2.1,10.07,10.07,0,0,0,1.34-1.52l3.51.49A11.66,11.66,0,0,1,272.13,491.27Zm-4.87-17.95a8.59,8.59,0,0,0-2.41,3.67l16.22,1a8.58,8.58,0,0,0-2-3.94,8.37,8.37,0,0,0-11.85-.71Z"/><path class="cls-7" d="M315.93,490.12l2.83.17-.18,3.06-8.83-.53.19-3.06,2.87.17.94-15.56-2.87-.17.19-3.21,8.83.53-.2,3.21-2.83-.17Z"/><polygon class="cls-7" points="251.94 486.13 253.35 486.22 257.28 467.77 260.49 467.96 256.37 489.62 249.07 489.18 248.66 475.94 246.62 489.03 239.39 488.6 237.59 466.58 240.77 466.77 242.76 485.58 244.03 485.65 246.17 473.09 251.38 473.41 251.94 486.13"/><path class="cls-7" d="M307.49,488.64l-2.18-2.17,2.43-2.06L305.67,482,303,484.21l-9.25-9.2a3.1,3.1,0,0,1,6,.41l3.28.18a6.35,6.35,0,0,0-12.69-.12l0,.73,1.61,1.61-1.93,1.75a7.56,7.56,0,0,0,10,11.35l2.76-2.33L305.2,491Zm-9.5-.15a4.37,4.37,0,0,1-5.77-6.56l2-1.85,6.28,6.24Z"/></g></svg>