<svg id="Слой_1" data-name="Слой 1" xmlns="http://www.w3.org/2000/svg" viewBox="0 0 327.76 264.3"><defs><style>.cls-1{fill:#003e5d;}.cls-2{fill:#e8511e;}.cls-3{fill:#fbbf09;}.cls-4{fill:#fff;}</style></defs><title>сайт we and i</title><polygon class="cls-1" points="327.76 135.21 241.39 264.3 180.48 217.39 250.23 66.14 327.76 135.21"/><path class="cls-2" d="M52.51,218.52A73.56,73.56,0,0,0,123.37,93.89l0,0,18.48-25.37L110.72,84.56a73.55,73.55,0,1,0-58.21,134"/><path class="cls-3" d="M296.19,101.08A122.18,122.18,0,0,0,58.41,88.51h-.1L6.9,79.93,54,114.24a122.17,122.17,0,1,0,242.24-13.16"/><polygon class="cls-4" points="159.68 86.77 223.75 122.19 159.68 157.61 159.68 122.19 159.68 86.77"/></svg>