<svg width="100%" height="100%" viewBox="0 0 500 300" fill="none" xmlns="http://www.w3.org/2000/svg">
<path fill-rule="evenodd" clip-rule="evenodd" d="M774 0H0V404H774V0ZM105 124L101 328L114.839 330.784L115 353.5L177.555 343.403L267.5 361.5L550.978 283.129L654 266.5L653.902 254.674L669 250.5L653.187 168.141L652.5 85L636.348 80.438L633 63L471.131 33.7737L390.5 11L369.795 15.4768L345 11L132 49L125.015 68.4021L113 71L113.214 101.184L105 124Z" fill="#E8501E"/>
<path d="M633 63L636.5 80.5L471.5 34L633 63Z" fill="#FBBF09"/>
<path d="M669 250.5L654 254.5L653 168L669 250.5Z" fill="#FBBF09"/>
<path d="M132 49L125 68.5L370 15.5L345 11L132 49Z" fill="#FBBF09"/>
<path d="M105 123.5L113.5 101.5L115 331L101 328L105 123.5Z" fill="#FBBF09"/>
<path d="M267.5 361.5L178 343.5L551 283L267.5 361.5Z" fill="#FBBF09"/>
</svg>
