<svg width="950" height="520" viewBox="0 0 950 520" fill="none" xmlns="http://www.w3.org/2000/svg">
<path fill-rule="evenodd" clip-rule="evenodd" d="M950 0H0V520H950V0ZM128.876 159.604L123.966 422.178L140.952 425.762L141.15 455L217.929 442.004L328.327 465.297L676.264 364.423L802.713 343.02L802.593 327.798L821.124 322.426L801.715 216.419L800.872 109.406L781.047 103.534L776.938 81.0891L578.262 43.4711L479.296 14.1584L453.882 19.9207L423.45 14.1584L162.016 63.0693L153.442 88.0423L138.695 91.3861L138.957 130.237L128.876 159.604Z" fill="#E8501E"/>
<path d="M776.938 81.0891L781.234 103.614L578.714 43.7623L776.938 81.0891Z" fill="#FBBF09"/>
<path d="M821.124 322.426L802.713 327.574L801.486 216.238L821.124 322.426Z" fill="#FBBF09"/>
<path d="M162.016 63.0693L153.424 88.1684L454.134 19.9505L423.45 14.1584L162.016 63.0693Z" fill="#FBBF09"/>
<path d="M128.876 158.96L139.309 130.644L141.15 426.04L123.966 422.178L128.876 158.96Z" fill="#FBBF09"/>
<path d="M328.327 465.297L218.475 442.129L676.292 364.257L328.327 465.297Z" fill="#FBBF09"/>
</svg>
