<svg width="1000" height="792" viewBox="0 0 1000 792" fill="none" xmlns="http://www.w3.org/2000/svg">
<path fill-rule="evenodd" clip-rule="evenodd" d="M1000 0H0V792H1000V0ZM20.2539 310.143L13.3783 660.799L37.1663 665.585L37.4427 704.631L144.969 687.275L299.575 718.382L786.845 583.67L963.929 555.086L963.761 534.759L989.712 527.584L962.532 386.017L961.351 243.106L933.587 235.265L927.832 205.291L649.596 155.053L510.999 115.908L475.409 123.603L432.789 115.908L66.6641 181.226L54.6581 214.576L34.0049 219.042L34.3722 270.926L20.2539 310.143Z" fill="#E8501E"/>
<path d="M927.832 205.291L933.848 235.371L650.23 155.443L927.832 205.291Z" fill="#FBBF09"/>
<path d="M989.712 527.584L963.929 534.46L962.21 385.775L989.712 527.584Z" fill="#FBBF09"/>
<path d="M66.6641 181.226L54.6318 214.745L475.762 123.643L432.789 115.908L66.6641 181.226Z" fill="#FBBF09"/>
<path d="M20.254 309.284L34.8646 271.468L37.443 665.955L13.3784 660.799L20.254 309.284Z" fill="#FBBF09"/>
<path d="M299.575 718.382L145.733 687.442L786.882 583.448L299.575 718.382Z" fill="#FBBF09"/>
</svg>
