<svg width="1000" height="635" viewBox="0 0 widthofContainer heighthofContainer" fill="none" xmlns="http://www.w3.org/2000/svg">
<path fill-rule="evenodd" clip-rule="evenodd" d="M1000 0H0V634.298H1000V0ZM20.2539 213.143L13.3783 563.799L37.1663 568.585L37.4427 607.631L144.969 590.275L299.575 621.382L786.845 486.67L963.929 458.086L963.761 437.759L989.712 430.584L962.532 289.017L961.351 146.106L933.587 138.265L927.832 108.291L649.596 58.0535L510.999 18.9079L475.409 26.6031L432.789 18.9079L66.6641 84.226L54.6581 117.576L34.0049 122.042L34.3722 173.926L20.2539 213.143Z" fill="#E8501E"/>
<path d="M927.832 108.291L933.848 138.371L650.23 58.4425L927.832 108.291Z" fill="#FBBF09"/>
<path d="M989.712 430.584L963.929 437.46L962.21 288.775L989.712 430.584Z" fill="#FBBF09"/>
<path d="M66.6641 84.2261L54.6318 117.745L475.762 26.643L432.789 18.908L66.6641 84.2261Z" fill="#FBBF09"/>
<path d="M20.254 212.284L34.8646 174.468L37.443 568.955L13.3784 563.799L20.254 212.284Z" fill="#FBBF09"/>
<path d="M299.575 621.382L145.733 590.442L786.882 486.448L299.575 621.382Z" fill="#FBBF09"/>
</svg>
