<svg id="Слой_1" data-name="Слой 1" xmlns="http://www.w3.org/2000/svg" viewBox="0 0 483.09 28.32"><defs><style>.cls-1{fill:#fff;}</style></defs><title>сайт we and i</title><polygon class="cls-1" points="201.64 0.92 198.34 26.55 188.46 26.55 184.79 0.92 188.53 0.92 192.19 22.77 194.57 22.77 197.87 0.92 201.64 0.92"/><path class="cls-1" d="M217,27.39a13.7,13.7,0,1,1,13.69-13.7c0,.44,0,.88-.07,1.29H207.28a9.61,9.61,0,0,0,2.78,5.67,9.8,9.8,0,0,0,13.92,0,11.71,11.71,0,0,0,1.46-1.86l4.14.32A13.66,13.66,0,0,1,217,27.39m-7-20.65a10,10,0,0,0-2.56,4.46h19A10,10,0,0,0,224,6.74a9.83,9.83,0,0,0-13.92,0"/><path class="cls-1" d="M234.71,26.55V.91h7.07a9.59,9.59,0,0,1,6.62,2.75,9.12,9.12,0,0,1,2.75,6.59,9.3,9.3,0,0,1-2.75,6.67,9.59,9.59,0,0,1-3.18,2l6.37,7.58h-5l-5.79-6.92h-2.27v6.92Zm3.84-10.77h3.23a5.51,5.51,0,1,0,0-11h-3.23Z"/><polygon class="cls-1" points="263.45 4.69 263.45 26.55 259.72 26.55 259.72 4.69 253.05 4.69 253.05 0.91 270.12 0.91 270.12 4.69 263.45 4.69"/><polygon class="cls-1" points="281.47 22.96 284.8 22.96 284.8 26.55 274.44 26.55 274.44 22.96 277.81 22.96 277.81 4.69 274.44 4.69 274.44 0.92 284.8 0.92 284.8 4.69 281.47 4.69 281.47 22.96"/><path class="cls-1" d="M300.33,27.35a13.66,13.66,0,1,1,13.29-17h-4a10.57,10.57,0,0,0-2.3-3.62,9.85,9.85,0,0,0-13.88,0,9.82,9.82,0,0,0,6.92,16.77,9.88,9.88,0,0,0,7-2.86,9.59,9.59,0,0,0,2.2-3.37h4.06a13.7,13.7,0,0,1-13.22,10.07"/><path class="cls-1" d="M317.62,26.55V.91H334.5V26.55h-3.77V14.93h-9.38V26.55Zm3.73-15.39h9.38V4.69h-9.38Z"/><polygon class="cls-1" points="352.62 22.96 352.62 26.55 339.15 26.55 339.15 0.92 343 0.92 343 22.96 352.62 22.96"/><path class="cls-1" d="M43.45,28.24A14.12,14.12,0,1,1,57.57,14.12c0,.45,0,.9-.07,1.32H33.41a10.13,10.13,0,0,0,17.22,5.85,12.5,12.5,0,0,0,1.51-1.92l4.26.34a14.07,14.07,0,0,1-12.95,8.53M36.28,7a10.27,10.27,0,0,0-2.64,4.6H53.27A10.27,10.27,0,0,0,50.63,7,10.13,10.13,0,0,0,36.28,7"/><polygon class="cls-1" points="96.2 23.67 99.63 23.67 99.63 27.37 88.95 27.37 88.95 23.67 92.42 23.67 92.42 4.83 88.95 4.83 88.95 0.94 99.63 0.94 99.63 4.83 96.2 4.83 96.2 23.67"/><polygon class="cls-1" points="18.73 23.51 20.44 23.51 23.84 0.98 27.73 0.98 24.33 27.4 15.49 27.4 14.03 11.46 12.53 27.4 3.77 27.4 0 0.98 3.85 0.98 7.63 23.51 9.15 23.51 10.82 8.21 17.13 8.21 18.73 23.51"/><path class="cls-1" d="M85.91,22.5,83.13,20l2.78-2.66-2.67-2.8-3,2.9L68.4,7.05a3.74,3.74,0,0,1,7.32.06l4,0a7.68,7.68,0,0,0-15.31.78v.9l2.06,1.81-2.19,2.25a9.12,9.12,0,0,0,6.55,15.5,9.09,9.09,0,0,0,6.32-2.53l3.16-3,3,2.68ZM74.45,23A5.28,5.28,0,0,1,67,15.52l2.33-2.39,8,7.08Z"/><path class="cls-1" d="M127.54,26.51V.87H142.2V12.56h7.2v.25h0v13.7ZM138.42,4.66h-7.09v7.9h7.09Zm7.23,11.64H131.33v6.43h14.32Z"/><polygon class="cls-1" points="149.44 0.87 153.22 0.87 159.69 12.56 166.15 0.87 169.93 0.87 161.58 16.3 161.58 26.59 157.79 26.59 157.79 16.3 149.44 0.87"/><polygon class="cls-1" points="374.34 26.52 370.57 26.52 370.57 0.94 374.34 0.94 374.34 10.99 383.74 10.99 383.74 0.94 387.5 0.94 387.5 26.52 383.74 26.52 383.74 14.75 374.34 14.75 374.34 26.52"/><path class="cls-1" d="M405,27.36A13.67,13.67,0,1,1,418.71,13.7,13.67,13.67,0,0,1,405,27.36M398.1,20.6a9.78,9.78,0,0,0,13.88,0,9.58,9.58,0,0,0,2.85-6.9A9.61,9.61,0,0,0,412,6.75a9.83,9.83,0,0,0-16.77,7,9.62,9.62,0,0,0,2.89,6.9"/><polygon class="cls-1" points="430.8 4.71 430.8 26.52 427.08 26.52 427.08 4.71 420.43 4.71 420.43 0.94 437.45 0.94 437.45 4.71 430.8 4.71"/><path class="cls-1" d="M452.91,27.36a13.67,13.67,0,1,1,13.67-13.67c0,.44,0,.88-.08,1.28H443.19A9.61,9.61,0,0,0,446,20.64a9.78,9.78,0,0,0,13.88,0,12.33,12.33,0,0,0,1.47-1.87l4.12.33a13.61,13.61,0,0,1-12.53,8.26M446,6.75a9.89,9.89,0,0,0-2.56,4.46h19a10,10,0,0,0-2.56-4.46,9.78,9.78,0,0,0-13.88,0"/><polygon class="cls-1" points="483.09 22.94 483.09 26.52 470.56 26.52 470.56 0.94 474.39 0.94 474.39 22.94 483.09 22.94"/></svg>